<?xml version="1.0" encoding="UTF-8"?>
<svg id="Layer_2" xmlns="http://www.w3.org/2000/svg" viewBox="0 0 600 371">
  <g id="Layer_1-2" data-name="Layer_1">
    <path d="M446,371H61c-.52-1.54-.88-3.15-1.58-4.6-11.89-24.71-23.78-49.42-35.75-74.1C15.85,276.17,7.9,260.1,0,244c0-.33,0-.67,0-1h69.11c-1.92-2.09-3.21-3.52-4.54-4.92C-8.86,161.13,26.96,32.68,129.66,4.97,137.64,2.81,145.88,1.63,154,0c128.33,0,256.67,0,385,0,.52,1.54.88,3.15,1.58,4.6,12.04,25.01,24.1,50.01,36.21,74.98,7.68,15.83,15.47,31.62,23.21,47.42v1h-68.13c-.11.58-.22.81-.15.88.99,1.12,1.98,2.25,3.01,3.33,22.79,23.86,35.84,52.26,39.05,85.05,6.74,68.97-39.84,133.94-107.29,149.79-6.76,1.59-13.65,2.64-20.49,3.95ZM545.52,93.62c-9.06-18.77-17.74-36.39-26.02-54.18-1.89-4.05-4-5.45-8.54-5.45-113.97.15-227.95.08-341.92.2-7.29,0-14.67.64-21.86,1.85-56.72,9.55-96.68,67.32-85.65,123.53,10.32,52.59,53.45,88.14,107.06,88.19,45.66.04,91.31.01,136.97,0,1.76,0,3.52-.15,5.76-.25-.62-1.72-.96-2.96-1.5-4.11-18.56-38.91-37.17-77.79-55.63-116.74-1.43-3.01-3.32-3.51-6.24-3.49-20.33.1-40.66.05-60.99.06-1.43,0-2.85.18-5.02.32,10.26,20.65,20.25,40.74,30.49,61.34-17.21,0-33.4.64-49.52-.13-32.02-1.53-52.59-34.3-39.78-63.38,8.5-19.31,24.39-27.77,45.15-27.77,123.3,0,246.61,0,369.91,0h7.32ZM54.68,277.38c1.05,2.37,1.67,3.87,2.38,5.33,7.88,16.34,15.92,32.61,23.57,49.06,1.8,3.88,3.83,5.22,8.17,5.22,113.65-.14,227.31-.1,340.96-.14,4.99,0,9.99-.26,14.96-.72,50.56-4.73,92.32-48.03,95.2-98.64,3.56-62.42-44.46-113.91-106.85-114.22-46.49-.23-92.99-.05-139.49-.04-1.54,0-3.08.15-4.93.25.43,1.37.56,2.03.84,2.61,18.84,39.52,37.73,79.01,56.48,118.57,1.37,2.89,3.3,3.15,5.96,3.14,20.5-.06,41-.03,61.49-.05,1.37,0,2.74-.23,4.6-.4-5.28-10.82-10.23-20.98-15.19-31.14-5-10.23-10.02-20.45-15.25-31.14,17.43,0,33.96-.75,50.4.17,28.31,1.59,48.07,29.31,41.31,56.81-5.3,21.59-23.62,35.32-47.27,35.32-123.32.01-246.64,0-369.96,0-2.14,0-4.28,0-7.38,0Z"/>
  </g>
</svg>