<svg width="80" height="81" viewBox="0 0 80 81" fill="none" xmlns="http://www.w3.org/2000/svg">
<path d="M9.54389 72.1582C9.74131 71.8577 9.92482 71.5555 10.1304 71.2655C14.5234 65.1279 18.9245 59.0007 23.3041 52.8568C26.0122 49.0626 24.6858 43.6232 20.5183 41.6082C19.6032 41.1649 18.5369 40.9148 17.5177 40.8166C13.7104 40.4523 9.89112 40.1854 6.08104 39.882C5.36737 39.8264 4.64907 39.7702 3.93541 39.7145C3.93189 39.667 3.93358 39.6154 3.93007 39.5679C4.65457 39.4223 5.37966 39.2722 6.10416 39.1266C9.07 38.5293 12.0347 37.9413 15.0023 37.3301C16.5486 37.0134 18.1287 36.8045 19.6176 36.3064C22.3988 35.3754 23.9982 33.3416 24.4891 30.4496C24.8888 28.102 24.174 26.0823 22.6624 24.2981C19.7464 20.8514 16.8357 17.4006 13.9302 13.9457C13.8153 13.809 13.7484 13.6264 13.6602 13.4648C13.6978 13.427 13.7355 13.3893 13.7731 13.3516C13.9889 13.4726 14.211 13.5802 14.4158 13.714C17.7817 15.9638 21.1303 18.2398 24.5084 20.4676C26.9376 22.069 29.9877 21.7789 32.1466 19.8287C33.589 18.5289 34.536 16.8945 35.2945 15.1472C36.8126 11.6433 37.5364 7.93721 37.99 4.16932C38.0102 4.00698 38.0303 3.84465 38.1826 3.6422C38.2499 3.74475 38.3555 3.84263 38.3748 3.95334C38.9022 7.25431 39.3572 10.5698 39.9716 13.8533C40.4404 16.3747 41.8832 18.334 44.1069 19.6179C47.6535 21.6641 51.4804 21.3008 54.6457 18.6419C57.6586 16.1101 60.6303 13.5308 63.6228 10.9729C63.8499 10.775 64.1176 10.6293 64.3696 10.4581C64.4277 10.5218 64.4863 10.5809 64.5489 10.6452C64.2346 11.1289 63.9196 11.6173 63.6006 12.1005C61.0115 15.9989 58.3835 19.8689 55.8379 23.7962C53.5719 27.2921 55.2079 32.1341 59.1267 33.5342C60.1056 33.8818 61.2042 33.9475 62.2616 34.0411C65.4381 34.3271 68.6209 34.5621 71.8008 34.8202C73.307 34.9412 74.8131 35.0623 76.3187 35.188C76.4399 35.1983 76.5535 35.2312 76.7044 35.3818C76.5949 35.4295 76.4871 35.5009 76.3712 35.5241C72.0954 36.3921 67.8215 37.2839 63.537 38.1084C61.8289 38.438 60.2461 38.9338 58.8906 40.1031C56.1686 42.4543 55.5359 46.9818 57.7296 49.835C59.5827 52.2455 61.598 54.5255 63.5449 56.863C64.7745 58.339 66.0094 59.811 67.2344 61.2865C67.3284 61.4018 67.4062 61.5339 67.4898 61.6573C67.4521 61.695 67.4185 61.7379 67.3809 61.7756C67.1843 61.6523 66.9865 61.5383 66.7951 61.4109C62.2778 58.3823 57.7778 55.3276 53.2385 52.3246C49.7565 50.0226 45.0014 51.6035 43.6587 55.553C43.258 56.7325 43.1536 58.0288 43.0306 59.2851C42.6157 63.6135 42.2565 67.9489 41.8747 72.2767C41.8604 72.4303 41.8228 72.5811 41.7945 72.733C41.7424 72.7359 41.6948 72.7395 41.6426 72.7424C41.6147 72.6259 41.5729 72.5077 41.5594 72.3883C41.2972 70.1375 41.0304 67.8861 40.7734 65.6313C40.5211 63.4147 40.2305 61.2028 40.0541 58.9816C39.869 56.6791 39.0894 54.7644 37.0472 53.4984C34.7474 52.0685 31.8235 52.2518 29.777 54.0559C27.3597 56.1907 24.9917 58.3834 22.6034 60.55C19.9389 62.9697 17.2743 65.3893 14.6143 67.8095C13.0695 69.2143 11.5286 70.6243 9.9919 72.0395C9.8911 72.1306 9.86923 72.3069 9.80963 72.4455C9.7226 72.3499 9.63498 72.259 9.54795 72.1634L9.54389 72.1582Z" fill="white"/>
<path fill-rule="evenodd" clip-rule="evenodd" d="M39.7238 22.6144C32.3976 22.6144 26.4751 28.5805 26.4751 35.9615C26.4751 41.8615 30.2698 46.8557 35.5342 48.6233C36.1924 48.7562 36.4334 48.3361 36.4334 47.9828C36.4334 47.6733 36.4117 46.6127 36.4117 45.5076C32.7263 46.3033 31.9588 43.9166 31.9588 43.9166C31.3665 42.3697 30.489 41.9721 30.489 41.9721C29.2827 41.1545 30.5768 41.1545 30.5768 41.1545C31.9149 41.2429 32.617 42.5245 32.617 42.5245C33.8013 44.5574 35.7096 43.983 36.4774 43.6294C36.5869 42.7675 36.9381 42.1709 37.311 41.8395C34.3716 41.5301 31.2789 40.3811 31.2789 35.2542C31.2789 33.7958 31.8051 32.6025 32.6387 31.6745C32.5072 31.3431 32.0464 29.9728 32.7705 28.1388C32.7705 28.1388 33.8891 27.7851 36.4115 29.5088C37.4914 29.2167 38.6051 29.068 39.7238 29.0668C40.8424 29.0668 41.9828 29.2216 43.0358 29.5088C45.5584 27.7851 46.6771 28.1388 46.6771 28.1388C47.4011 29.9728 46.9401 31.3431 46.8086 31.6745C47.6642 32.6025 48.1686 33.7958 48.1686 35.2542C48.1686 40.3811 45.076 41.5079 42.1146 41.8395C42.5973 42.2593 43.0138 43.0547 43.0138 44.3144C43.0138 46.1042 42.9922 47.5407 42.9922 47.9825C42.9922 48.3361 43.2335 48.7562 43.8914 48.6236C49.1557 46.8554 52.9505 41.8615 52.9505 35.9615C52.9722 28.5805 47.028 22.6144 39.7238 22.6144Z" fill="#1B1B1B"/>
</svg>
