<svg width="80" height="80" viewBox="0 0 80 80" fill="none" xmlns="http://www.w3.org/2000/svg">
<path d="M9.53676 72.1032C9.73403 71.803 9.9174 71.5011 10.1228 71.2113C14.5124 65.0783 18.9102 58.9558 23.2865 52.8165C25.9925 49.0253 24.6671 43.59 20.5028 41.5765C19.5884 41.1336 18.5229 40.8837 17.5045 40.7855C13.7001 40.4215 9.88373 40.1548 6.07655 39.8516C5.36343 39.7961 4.64567 39.7399 3.93255 39.6843C3.92903 39.6368 3.93073 39.5853 3.92721 39.5378C4.65117 39.3923 5.3757 39.2423 6.09965 39.0968C9.06324 38.5 12.0257 37.9124 14.991 37.3016C16.5362 36.9852 18.1151 36.7765 19.6028 36.2788C22.3819 35.3484 23.9801 33.3162 24.4706 30.4264C24.87 28.0806 24.1558 26.0625 22.6453 24.2796C19.7315 20.8355 16.823 17.3873 13.9197 13.9351C13.8049 13.7985 13.7381 13.616 13.6499 13.4545C13.6875 13.4168 13.7252 13.3791 13.7628 13.3415C13.9784 13.4623 14.2003 13.5699 14.4049 13.7035C17.7683 15.9517 21.1143 18.2259 24.4899 20.452C26.9172 22.0522 29.965 21.7623 32.1223 19.8136C33.5635 18.5148 34.5098 16.8816 35.2677 15.1356C36.7848 11.6344 37.508 7.93116 37.9612 4.16614C37.9814 4.00393 38.0015 3.84172 38.1537 3.63943C38.221 3.7419 38.3265 3.83971 38.3457 3.95033C38.8727 7.24879 39.3274 10.5618 39.9413 13.8428C40.4098 16.3622 41.8515 18.32 44.0735 19.6029C47.6174 21.6476 51.4414 21.2846 54.6042 18.6278C57.6148 16.0979 60.5843 13.5205 63.5745 10.9646C63.8015 10.7668 64.069 10.6212 64.3208 10.4501C64.3788 10.5138 64.4373 10.5728 64.4999 10.6371C64.1858 11.1204 63.8711 11.6084 63.5523 12.0912C60.9652 15.9867 58.3392 19.8538 55.7955 23.7781C53.5313 27.2713 55.166 32.1096 59.0819 33.5087C60.06 33.856 61.1577 33.9217 62.2144 34.0152C65.3884 34.301 68.5688 34.5358 71.7463 34.7937C73.2513 34.9147 74.7563 35.0356 76.2608 35.1612C76.3819 35.1715 76.4954 35.2044 76.6462 35.3549C76.5367 35.4025 76.429 35.4738 76.3132 35.4971C72.0407 36.3644 67.77 37.2555 63.4888 38.0794C61.782 38.4087 60.2004 38.9042 58.8459 40.0725C56.126 42.422 55.4938 46.946 57.6858 49.797C59.5375 52.2058 61.5512 54.484 63.4966 56.8197C64.7253 58.2946 65.9593 59.7655 67.1834 61.2398C67.2773 61.355 67.355 61.487 67.4385 61.6103C67.4009 61.648 67.3674 61.6909 67.3297 61.7286C67.1333 61.6054 66.9356 61.4914 66.7444 61.3642C62.2305 58.3379 57.734 55.2855 53.1981 52.2848C49.7188 49.9846 44.9673 51.5642 43.6256 55.5107C43.2252 56.6893 43.1209 57.9846 42.998 59.24C42.5834 63.5651 42.2245 67.8972 41.843 72.2217C41.8286 72.3752 41.7911 72.5258 41.7628 72.6776C41.7107 72.6806 41.6632 72.6841 41.6111 72.687C41.5832 72.5706 41.5414 72.4525 41.528 72.3332C41.2659 70.0841 40.9993 67.8345 40.7425 65.5814C40.4904 63.3665 40.2 61.1562 40.0238 58.9367C39.8388 56.636 39.0598 54.7228 37.0191 53.4576C34.7211 52.0288 31.7994 52.212 29.7544 54.0147C27.339 56.1479 24.9728 58.3389 22.5864 60.504C19.9238 62.9218 17.2613 65.3396 14.6033 67.7579C13.0596 69.1616 11.52 70.5706 9.98443 71.9847C9.88371 72.0757 9.86185 72.2518 9.80231 72.3903C9.71533 72.2948 9.62779 72.204 9.54082 72.1085L9.53676 72.1032Z" fill="white"/>
<g clip-path="url(#clip0_88_193)">
<path d="M40.2339 33.9711V39.0938H47.3527C47.0401 40.7412 46.1021 42.1362 44.6952 43.0741L48.9881 46.4051C51.4893 44.0964 52.9324 40.7053 52.9324 36.6769C52.9324 35.7389 52.8482 34.8369 52.6918 33.9712L40.2339 33.9711Z" fill="#1B1B1B"/>
<path d="M32.8207 38.8938L31.8525 39.635L28.4253 42.3045C30.6018 46.6215 35.0628 49.6038 40.2336 49.6038C43.805 49.6038 46.7992 48.4253 48.9878 46.4051L44.6949 43.0741C43.5164 43.8678 42.0132 44.3488 40.2336 44.3488C36.7944 44.3488 33.8724 42.028 32.8261 38.9014L32.8207 38.8938Z" fill="#1B1B1B"/>
<path d="M28.4252 30.4478C27.5234 32.2274 27.0063 34.2356 27.0063 36.3761C27.0063 38.5165 27.5234 40.5247 28.4252 42.3044C28.4252 42.3163 32.8265 38.8892 32.8265 38.8892C32.5619 38.0956 32.4056 37.2539 32.4056 36.3759C32.4056 35.498 32.5619 34.6563 32.8265 33.8626L28.4252 30.4478Z" fill="#1B1B1B"/>
<path d="M40.2339 28.4154C42.182 28.4154 43.9136 29.0888 45.2965 30.3876L49.0843 26.5997C46.7875 24.4593 43.8054 23.1484 40.2339 23.1484C35.0631 23.1484 30.6018 26.1186 28.4253 30.4477L32.8264 33.8628C33.8726 30.7363 36.7947 28.4154 40.2339 28.4154Z" fill="#1B1B1B"/>
</g>
<defs>
<clipPath id="clip0_88_193">
<rect width="26.4553" height="26.4553" fill="white" transform="translate(27.0063 23.1484)"/>
</clipPath>
</defs>
</svg>
