<svg width="143" height="143" viewBox="0 0 143 143" fill="none" xmlns="http://www.w3.org/2000/svg">
<path d="M62.2259 55.5228H55.5393V76.8458H62.2259V55.5228Z" fill="white"/>
<path d="M80.3135 55.0606C80.067 55.0298 79.805 55.0144 79.5431 54.999C75.7993 54.8449 73.6885 57.0635 72.949 58.0187C72.7487 58.2806 72.6563 58.4347 72.6563 58.4347V55.5844H66.2625V76.9074H72.6563H72.949C72.949 74.7351 72.949 72.5781 72.949 70.4058C72.949 69.2348 72.949 68.0639 72.949 66.893C72.949 65.4448 72.8412 63.9041 73.5653 62.5791C74.1816 61.4698 75.2908 60.9152 76.5388 60.9152C80.2364 60.9152 80.3135 64.2584 80.3135 64.5666C80.3135 64.582 80.3135 64.5974 80.3135 64.5974V76.9999H87V63.0875C87 58.3268 84.5812 55.5228 80.3135 55.0606Z" fill="white"/>
<path d="M58.8825 52.765C61.0268 52.765 62.765 51.0268 62.765 48.8825C62.765 46.7383 61.0268 45 58.8825 45C56.7383 45 55 46.7383 55 48.8825C55 51.0268 56.7383 52.765 58.8825 52.765Z" fill="white"/>
<path d="M59.8115 8.24121C60.9349 12.217 62.074 16.2087 63.3291 20.1475V20.1465C64.9571 25.275 68.4297 29.036 73.2646 31.2197L73.7373 31.4258C81.8225 34.8422 89.9474 33.0312 95.957 26.5625C99.8211 22.4017 103.642 18.192 107.458 13.9932C103.995 20.8907 100.495 27.7974 97.1201 34.7559C93.0869 43.0712 97.9955 53.2542 107.01 55.2666L107.013 55.2676C109.259 55.7644 111.672 55.6054 113.693 55.5342L113.692 55.5332C120.032 55.3194 126.384 55.0039 132.7 54.7354H132.701C132.992 54.7227 133.283 54.7108 133.574 54.6982C127.949 56.5945 122.328 58.485 116.688 60.3145H116.687C113.309 61.4118 110.013 62.8785 107.366 65.8037L107.365 65.8047C102.168 71.5559 101.885 81.3232 107.244 87.0635L107.504 87.333C111.773 91.6585 116.363 95.7152 120.729 99.8057C121.561 100.585 122.394 101.362 123.225 102.138C115.83 98.3924 108.428 94.6353 100.994 90.9434H100.993C92.8319 86.8935 82.9609 91.4488 80.8574 100.268L80.7627 100.691C80.2185 103.322 80.3438 106.1 80.4072 108.545V108.548C80.5413 113.344 80.71 118.143 80.8857 122.937C80.7467 122.364 80.6062 121.791 80.4678 121.218C79.4198 116.876 78.318 112.636 77.4336 108.334V108.333L77.3369 107.887C76.3039 103.296 74.0787 99.39 69.3223 97.2002C63.8621 94.6787 57.4249 95.8743 53.376 100.446L53.375 100.447C49.1235 105.257 44.9739 110.181 40.8096 115.021V115.021C36.1489 120.443 31.487 125.865 26.835 131.288C26.5465 131.624 26.2599 131.962 25.9717 132.298C29.7857 125.286 33.6007 118.275 37.4082 111.26L42.7646 101.375C47.6041 92.4391 43.2969 81.0065 33.6826 77.7471H33.6836C31.5614 77.026 29.2126 76.7826 27.0508 76.8418H27.0498C21.2566 77.0047 15.4564 77.2801 9.67969 77.5498C13.7044 76.2098 17.7337 74.8691 21.7607 73.5049L21.7598 73.5039C24.417 72.6071 27.4479 71.7959 30.2236 70.5459L30.7754 70.2891C36.3919 67.5999 39.3281 62.8947 39.7627 56.8535L39.7969 56.2656C40.0262 51.1885 38.0236 47.0741 34.5488 43.7363L34.208 43.415C29.4121 38.9906 24.622 34.5602 19.8359 30.126C24.9563 32.7164 30.0855 35.3144 35.2285 37.8594V37.8604C41.0456 40.7375 47.72 39.2363 51.9277 34.3682L51.9287 34.3691C54.6521 31.2252 56.1966 27.5415 57.2939 23.8105V23.8096C58.7997 18.6767 59.5181 13.4643 59.8115 8.24121Z" stroke="white" stroke-width="3"/>
</svg>
