<?xml version="1.0" encoding="UTF-8"?>
<svg id="Layer_2" xmlns="http://www.w3.org/2000/svg" viewBox="0 0 153.4 153.56">
  <defs>
    <style>
      .cls-1 {
        fill: #fff;
      }
    </style>
  </defs>
  <g id="Layer_1-2" data-name="Layer_1">
    <path class="cls-1" d="M20.51,153.04c.34-.69.65-1.38,1.01-2.05,7.71-14.19,15.44-28.36,23.12-42.56,4.75-8.77.5-19.97-8.88-23.15-2.06-.7-4.39-.95-6.58-.89-8.18.23-16.36.67-24.53,1.03-1.53.07-3.07.14-4.6.21-.02-.1-.03-.21-.05-.31,1.5-.5,3-1.01,4.5-1.51,6.14-2.05,12.28-4.08,18.42-6.16,3.2-1.08,6.5-1.94,9.53-3.39,5.66-2.71,8.52-7.45,8.8-13.72.23-5.09-1.82-9.19-5.5-12.58-7.1-6.55-14.19-13.11-21.27-19.68-.28-.26-.47-.63-.7-.95.07-.09.14-.18.21-.27.49.2.99.37,1.46.6,7.74,3.89,15.45,7.84,23.21,11.68,5.58,2.76,11.98,1.34,16.05-3.37,2.72-3.14,4.3-6.86,5.45-10.77,2.3-7.84,2.86-15.9,2.83-24.02,0-.35,0-.7.27-1.17.17.2.42.38.49.61,1.99,6.87,3.83,13.79,6,20.6,1.66,5.23,5.24,9.01,10.3,11.15,8.07,3.41,16.1,1.63,22.12-4.85,5.73-6.17,11.36-12.43,17.04-18.65.43-.48.96-.86,1.45-1.29.14.12.28.23.43.35-.54,1.11-1.08,2.23-1.63,3.34-4.47,8.96-9.03,17.87-13.4,26.88-3.89,8.02.86,17.87,9.55,19.81,2.17.48,4.52.33,6.79.25,6.82-.23,13.64-.57,20.46-.86,3.23-.14,6.46-.28,9.69-.41.26-.01.51.03.87.31-.22.13-.43.31-.67.39-8.85,2.97-17.69,5.99-26.57,8.87-3.54,1.15-6.77,2.62-9.34,5.46-5.16,5.71-5.31,15.49.1,20.97,4.57,4.63,9.45,8.94,14.2,13.39,3,2.81,6.01,5.61,9,8.42.23.22.43.48.64.72-.07.09-.13.19-.2.28-.45-.21-.9-.4-1.34-.62-10.39-5.24-20.75-10.54-31.18-15.72-8-3.97-17.68.64-19.49,9.38-.54,2.61-.42,5.39-.35,8.09.26,9.3.64,18.6.97,27.89.01.33-.03.66-.05.99-.11.02-.21.04-.32.06-.09-.24-.21-.48-.27-.73-1.15-4.71-2.31-9.42-3.45-14.14-1.12-4.64-2.32-9.26-3.28-13.93-1-4.84-3.16-8.7-7.83-10.85-5.26-2.43-11.42-1.27-15.29,3.1-4.57,5.17-9.02,10.45-13.52,15.68-5.02,5.84-10.04,11.68-15.05,17.52-2.91,3.39-5.81,6.79-8.7,10.2-.19.22-.19.6-.28.91-.21-.18-.42-.35-.63-.53Z"/>
  </g>
</svg>