<svg width="153" height="154" viewBox="0 0 153 154" fill="none" xmlns="http://www.w3.org/2000/svg">
<path d="M20.4539 152.611C20.7929 151.923 21.1021 151.235 21.4611 150.567C29.15 136.416 36.8588 122.284 44.5178 108.123C49.2548 99.3772 45.0164 88.2079 35.6621 85.0366C33.6077 84.3385 31.2841 84.0892 29.1001 84.149C20.9425 84.3784 12.7849 84.8172 4.63727 85.1762C3.11146 85.246 1.57567 85.3158 0.0498631 85.3856C0.0299179 85.2859 0.0199452 85.1762 0 85.0765C1.49589 84.5778 2.99179 84.0692 4.48768 83.5706C10.6109 81.5262 16.7341 79.5018 22.8573 77.4275C26.0485 76.3504 29.3395 75.4928 32.3612 74.0467C38.0057 71.3442 40.8578 66.6171 41.1371 60.3643C41.3664 55.2882 39.3221 51.1995 35.6521 47.8187C28.5716 41.2867 21.501 34.7446 14.4404 28.1926C14.1611 27.9333 13.9716 27.5643 13.7423 27.2452C13.8121 27.1555 13.8819 27.0657 13.9517 26.9759C14.4404 27.1754 14.939 27.3449 15.4077 27.5743C23.1265 31.4537 30.8154 35.3928 38.5542 39.2223C44.1189 41.9748 50.5014 40.5587 54.5602 35.8616C57.2728 32.7302 58.8485 29.0203 59.9953 25.121C62.289 17.3025 62.8475 9.26457 62.8176 1.1668C62.8176 0.817755 62.8176 0.468713 63.0868 0C63.2564 0.199452 63.5057 0.37896 63.5755 0.60833C65.56 7.45952 67.395 14.3606 69.5591 21.1519C71.2145 26.3676 74.7847 30.1373 79.8309 32.2714C87.8788 35.6721 95.8868 33.8969 101.89 27.4347C107.605 21.2816 113.219 15.0387 118.884 8.83574C119.312 8.35706 119.841 7.9781 120.33 7.54928C120.469 7.66895 120.609 7.77865 120.759 7.89832C120.22 9.00528 119.681 10.1222 119.133 11.2292C114.675 20.1646 110.128 29.0503 105.77 38.0356C101.89 46.0336 106.627 55.8567 115.294 57.7914C117.458 58.27 119.801 58.1205 122.065 58.0407C128.866 57.8113 135.668 57.4722 142.469 57.183C145.69 57.0434 148.911 56.9038 152.132 56.7741C152.392 56.7642 152.641 56.8041 153 57.0833C152.781 57.2129 152.571 57.3925 152.332 57.4722C143.506 60.4341 134.69 63.4458 125.835 66.318C122.304 67.4648 119.083 68.9308 116.52 71.763C111.374 77.4574 111.225 87.2106 116.62 92.6756C121.177 97.2929 126.044 101.591 130.781 106.029C133.773 108.831 136.775 111.624 139.756 114.426C139.986 114.645 140.185 114.905 140.395 115.144C140.325 115.234 140.265 115.333 140.195 115.423C139.746 115.214 139.298 115.024 138.859 114.805C128.497 109.579 118.166 104.294 107.764 99.1279C99.7861 95.1688 90.1326 99.7661 88.3275 108.482C87.789 111.085 87.9087 113.857 87.9785 116.55C88.2378 125.825 88.6167 135.099 88.9458 144.364C88.9558 144.693 88.9159 145.022 88.896 145.351C88.7863 145.371 88.6865 145.391 88.5768 145.411C88.4871 145.172 88.3674 144.932 88.3076 144.683C87.1607 139.986 86.0039 135.289 84.867 130.582C83.7501 125.954 82.5534 121.347 81.596 116.69C80.5987 111.863 78.4447 108.013 73.7874 105.869C68.5418 103.446 62.3987 104.603 58.5393 108.961C53.9818 114.117 49.544 119.382 45.0563 124.598C40.0501 130.422 35.0438 136.246 30.0475 142.07C27.1455 145.451 24.2534 148.841 21.3713 152.242C21.1819 152.461 21.1819 152.84 21.0921 153.15C20.8827 152.97 20.6733 152.801 20.4638 152.621L20.4539 152.611Z" fill="white"/>
<path fill-rule="evenodd" clip-rule="evenodd" d="M76.0199 43C62.7375 43 52 53.8167 52 67.1983C52 77.895 58.8799 86.9495 68.4241 90.1542C69.6174 90.3951 70.0545 89.6335 70.0545 88.9929C70.0545 88.4319 70.0151 86.509 70.0151 84.5055C63.3334 85.948 61.942 81.6209 61.942 81.6209C60.8682 78.8164 59.2772 78.0956 59.2772 78.0956C57.0902 76.6132 59.4365 76.6132 59.4365 76.6132C61.8623 76.7735 63.1353 79.0971 63.1353 79.0971C65.2824 82.7827 68.7422 81.7413 70.1341 81.1002C70.3328 79.5377 70.9695 78.456 71.6455 77.8552C66.3163 77.2942 60.7094 75.211 60.7094 65.9161C60.7094 63.2719 61.6632 61.1086 63.1746 59.4261C62.9361 58.8253 62.1008 56.3409 63.4135 53.0157C63.4135 53.0157 65.4417 52.3746 70.0146 55.4996C71.9725 54.9699 73.9916 54.7005 76.0199 54.6982C78.048 54.6982 80.1154 54.979 82.0246 55.4996C86.5981 52.3746 88.6262 53.0157 88.6262 53.0157C89.9389 56.3409 89.1031 58.8253 88.8646 59.4261C90.4158 61.1086 91.3303 63.2719 91.3303 65.9161C91.3303 75.211 85.7234 77.2539 80.3544 77.8552C81.2296 78.6163 81.9848 80.0584 81.9848 82.3421C81.9848 85.5871 81.9454 88.1915 81.9454 88.9924C81.9454 89.6335 82.383 90.3951 83.5758 90.1547C93.12 86.9491 99.9999 77.895 99.9999 67.1983C100.039 53.8167 89.2624 43 76.0199 43Z" fill="#1B1B1B"/>
</svg>
