<?xml version="1.0" encoding="UTF-8"?>
<svg id="Layer_2" xmlns="http://www.w3.org/2000/svg" viewBox="0 0 482.05 187.25">
  <g id="Layer_1-2" data-name="Layer_1">
    <path d="M355.01,179.15c-1.18-1.34-2.31-2.73-3.55-4.02-1.61-1.69-2.64-3.55-2.48-5.99.12-1.83.07-3.67,0-5.5-.05-1.42.13-2.75-.85-4.18-.65-.95.38-2.69.69-4.04.58-2.59.49-5.47-.82-8.04,1.44-2.38,1.41-5.14.83-7.54-.39-1.61-1.42-2.82.17-4.21-.44-2.55.84-5.23-.68-7.73-.37-.6-.53-1.95-.19-2.25,1.29-1.1.58-2.48.89-3.68.53-2.04-1-3.8-.54-5.88.42-1.88.45-3.86.47-5.8,0-1.08-.14-2.28-.63-3.21-.5-.95-.06-1.36.27-2.12.61-1.4,1.43-2.67,1.52-4.41.1-2.04-1.37-2.83-2.19-4.09.47-1.09.72-2.21,1.37-3.03.97-1.24.93-2.25.04-3.46-.96-1.3.46-3.36-1.34-4.44.63-1.41,1.25-2.82,2-4.48-.93-1.8-3.42-3.37-2.94-5.93,1.01-5.35.61-11.07,3.93-15.86,1.07-1.55,1.79-3.49,3.17-4.63,2.58-2.12,2.37-4.85,1.48-7.15-1.3-3.33-.43-6.25.38-9.31.15-.57.6-1.12,1.04-1.56,2.51-2.57,6-3.18,9.17-4.4,1.29-.49,3.16,1.17,3.74,3.12.84,2.83,1.52,5.71,2.25,8.49,1.17-.22,2.34-.41,3.49-.67,1.36-.31,2.31-.97,2.29-2.59-.04-3.83-.08-7.67,0-11.5.05-2.39-2.26-3.33-3-5.27-.38-.99-1.51-1.76-2.41-2.49-1.4-1.12-.13-1.89.36-3.06-4.62.19-7.89-2.22-11-5.65.6-1.28-.98-3.16,1.03-4.43-.03,1.64.51,3.28,1.9,3.93,2.78,1.29,5.28,3.06,8.67,3.29,2.12.15,4.63.11,6.51.94,2.76,1.21,5.55.17,8.09.95,2.71.84,5.37.86,8.09.89,2.49.02,4.98.03,7.47,0,2.56-.03,5.04-.02,7.6-.86,2.18-.71,4.68-.58,7.04-.95,3.92-.61,7.6-1.68,11.15-3.26,2.03-.91,3.59-2.39,3.47-4.92,1.55,1.2,1.08,2.52.48,4.07-1.43,3.72-4.78,4.68-7.98,5.92-.43.17-1.27.18-1.3.36-.62,3.74-3.67,5.85-5.68,8.66-.34.47-.5,1.17-.51,1.77-.04,3.83,0,7.66-.03,11.48-.01,1.54.59,2.48,2.15,2.74,2.01.33,3.4-.25,3.81-2.03.46-1.99.99-3.91,2.06-5.64.67-1.07,1.32-2.25,2.27-3.03,1.21-.99,2.35.5,3.44.58,3.92.29,5.72,3.37,8.27,5.56,0,2.65.05,5.31-.03,7.96-.03.92-.26,1.88-.65,2.72-.64,1.39-.38,2.38.71,3.45,2.07,2.04,4.48,3.84,5.66,6.63,1.29,3.04,2.65,6.06,2.34,9.53-.18,1.98.01,3.99-.06,5.99-.03.77-.13,1.65-.53,2.26-1.4,2.14-1.49,4.45-1.48,6.9.05,18.64.12,37.29-.02,55.93-.06,7.69-.71,15.37-.89,23.06-.04,1.84-.96,3.99.9,5.59-.92,2.27-1.03,4.91-2.77,6.8-2.06,2.24-4.73,3.47-7.41,4.92-4.64,2.5-9.76,2.99-14.56,4.66-3.25,1.13-7,.77-10.52,1.17-2.2.25-4.38.78-6.58.95-2.15.17-4.34.2-6.49,0-3.36-.32-6.7.61-10.15-.77-2.88-1.15-6.28-.18-9.55-.96-3.32-.79-6.75-1.31-10.12-2.17-3.92-1-7.89-1.7-11.33-4.03-.34-.23-.98-.03-1.48-.03ZM351.56,103.15c.15,0,.3,0,.45,0-.09-.26-.14-.55-.3-.76-.05-.06-.4.1-.61.17.15.2.31.4.91.59.33.33.67.67,1,1,.33.33.67.67,1,1,.33.33.67.67,1,1,1.8,1.97,5.27,3.89,8.63,5.02,5.02,1.69,10.02,3.47,15.24,4.55-3.95,1.01-7.44-.64-11.09-1.52-5.57-1.35-9.99-3.31-13.81-6.53-.41-.35-1.21-.23-2.87-.49,2.27,1.78,3.56,3.06,5.09,3.94,7.7,4.43,16.15,6.72,25.3,8.45-2.79,1.08-4.82-.03-6.97-.31-6.12-.79-11.73-2.95-17.29-5.39-.7-.31-1.47-.48-2.2-.72-.33-.33-.67-.67-1.45-1,.15,0,.3,0,.45,0-.09-.26-.14-.55-.3-.76-.05-.06-.4.1-.61.17.15.2.31.4.91.59.33.33.67.67,1,1,1.8,1.97,5.29,3.92,8.62,5.01,5.04,1.66,10.02,3.53,15.25,4.64-3.54.54-6.86-.39-10.14-1.43-4.26-1.36-8.49-2.81-12.73-4.21-.39-1.58-1.45-2.16-3.34-4.37-.38.71-.7,1.06-.63,1.19.25.43.63.79.97,1.17-.09-.65-.19-1.31,0,0,.39,1.58,1.45,2.16,3,2,.62.67,1.11,1.58,1.88,1.96,5.65,2.85,11.47,5.23,17.77,6.22.16.02.24.53.35.82-2.07-.05-4.04-.37-6.1-.85-4.56-1.05-10.56-3.5-14.43-6.12-.34-.23-.98-.03-1.47-.03-.33-.33-.67-.67-1.45-1h.45c-.09-.26-.14-.55-.3-.76-.05-.06-.4.1-.61.17.15.2.31.4.91.59.33.33.67.67,1,1,.62,2.31,2.79,3.11,4.52,3.89,4.71,2.14,9.3,4.66,14.47,5.63.03,0,0,.31,0,.47-1.31,0-2.66.21-3.91-.06-1.46-.31-2.8-1.11-4.24-1.58-2.6-.84-5.23-1.58-7.85-2.37-.88-1.61-1.8-3.15-4.45-3h.45c-.09-.26-.14-.55-.3-.76-.05-.06-.4.1-.61.17.15.2.31.4.91.59.88,1.61,1.8,3.15,4,3,1.37,2.61,4.12,3.06,6.5,3.96,3.4,1.29,6.89,2.31,10.34,3.45-2.79.25-5.37-.21-7.86-.97-3.36-1.03-6.66-2.28-10.58-3.43-.96-.95-2.22-2.2-3.41-3.39.47,1.95,1.61,3.3,4.02,3.38,1.79,1.97,5.38,4.04,8.52,5.01,3.76,1.16,7.5,2.38,11.25,3.58-1.37.41-2.79.76-3.94.35-5.02-1.81-10.41-2.62-15.01-5.57-.49-.31-1.21-.25-1.82-.37-.67-.67-1.33-1.33-2-2-.33-.33-.67-.67-1.45-1h.45c-.09-.26-.14-.55-.3-.76-.05-.06-.4.1-.61.17.15.2.31.4.91.59.33.33.67.67,1,1-.3,1.64.36,2.3,2,2,.62.67,1.11,1.58,1.87,1.96,5.22,2.62,10.52,5.03,16.34,6.08.31.06.53.63.79.96-2.86.18-5.5-.36-8.17-1.56-3.15-1.42-6.55-2.31-9.83-3.44-.39-1.58-1.45-2.16-3.45-2h.45c-.09-.26-.14-.55-.3-.76-.05-.06-.4.1-.61.17.15.2.31.4.91.59.39,1.58,1.45,2.16,3,2,.62.67,1.13,1.54,1.89,1.97,5.35,3.02,11.28,4.56,17.88,6.74-4.28.83-7.24-1.02-10.35-1.76-4.09-.97-7.88-2.73-11.29-5.27-.52-.39-1.26-.48-2.92-1.07,4.49,4.99,9.5,6.73,14.51,8.36,4.01,1.3,8.12,2.3,13.14,3.7-4.28.77-7.19-.43-10.15-1.43-4.23-1.43-8.48-2.82-12.72-4.23-.39-1.58-1.45-2.16-3.45-2h.45c-.09-.26-.14-.55-.3-.76-.05-.06-.4.1-.61.17.15.2.31.4.91.59.39,1.58,1.45,2.16,3,2,.62.67,1.11,1.62,1.88,1.95,5.77,2.49,11.41,5.4,17.77,6.23.15.02.24.53.35.82-1.14,0-2.29-.03-3.43,0-1.59.06-2.77-1.48-4.5-1.07-.42.1-1.01-.85-1.54-.87-3.48-.11-6.22-2.46-9.53-3.07-.39-1.58-1.45-2.16-5.42-3.15.68.77.88,1.14,1.02,1.12.48-.07.94-.28,1.4-.43-.6-.17-1.21-.34,0,.47.39,1.58,1.45,2.16,3,2,.35.52.58,1.27,1.07,1.51,4.53,2.21,9.11,4.32,14.06,5.5,1.04.25,2.02.71,3.06.97.84.21,1.72.24,2.58.35-1.19.67-2.41.95-3.44.62-5.39-1.72-11.12-2.39-16.14-5.24-.65-.37-1.45-.48-2.18-.71-.39-1.58-1.45-2.16-3.45-2h.45c-.09-.26-.14-.55-.3-.76-.05-.06-.4.1-.61.17.15.2.31.4.91.59.39,1.58,1.45,2.16,3,2,.62.67,1.11,1.58,1.88,1.96,5.65,2.85,11.47,5.23,17.77,6.22.16.02.24.53.35.82-3.14.75-6.27-.24-9.01-1.17-4.94-1.67-10.11-3.29-13.98-7.25-.39-.4-1.26-.32-2.42-.58,6.05,6.86,13.84,8.84,21.54,11.03,1.98.56,4.19.51,5.87,1.98-1.82-.39-3.64.49-5.58-.84-1.33-.91-3.53-.2-5.42-1.05-3.16-1.42-6.65-2.11-10-3.11-.39-1.58-1.45-2.16-3-2-.67-.67-1.33-1.33-2.45-2h.45c-.09-.26-.14-.55-.3-.76-.05-.06-.4.1-.61.17.15.2.31.4.91.59-.3,1.64.36,2.3,2,2,.39,1.58,1.45,2.16,3,2,.62.67,1.12,1.6,1.89,1.95,2.52,1.13,5.1,2.15,7.72,3.03,3.75,1.25,7.56,2.34,11.54,3.56-2.17,1.25-3.85-.51-5.61-.46-3.46.1-6.29-1.76-9.45-2.55-3.18-.8-6.28-1.93-8.62-4.48-.23-.25-.96-.03-1.46-.03-.33-.33-.67-.67-1.45-1h.45c-.09-.26-.14-.55-.3-.76-.05-.06-.4.1-.61.17.15.2.31.4.91.59.33.33.67.67,1,1,.35.51.64,1.07,1.05,1.53,1.6,1.8,3.91,2.45,5.98,3.44,3.58,1.7,6.93,4.13,11.17,4.03,1.09,1.89,3.8-.1,4.8,2-3.9.44-7.55-.94-11.08-2.11-4.38-1.46-8.94-2.9-12.21-6.6-.27-.3-1.08-.13-2.52-.26,8.46,7.38,17.91,10.28,28.74,12.61-4.43.32-7.37-.14-11.24-1.44-4.23-1.42-8.46-2.8-12.69-4.2-.33-.33-.67-.67-1-1-.33-.33-.67-.67-1-1-.33-.33-.67-.67-1.45-1h.45c-.09-.26-.14-.55-.3-.76-.05-.06-.4.1-.61.17.15.2.31.4.91.59.33.33.67.67,1,1,.33.33.67.67,1,1,.33.33.67.67,1,1,.35.52.58,1.25,1.07,1.52,4.47,2.41,9.1,4.39,14.09,5.53,1.98.45,4.18.46,5.84,1.95-5.2.05-10-1.65-14.81-3.31-1.72-.59-3.46-1.13-5.44-1.68-.85-.74-1.84-1.59-2.75-2.37.12,1.6,1.11,2.45,3.01,2.36.24.4.38.93.72,1.19,3.15,2.33,6.97,3.27,10.52,4.72,3.07,1.25,6.47,1.69,10.1,2.58-3.03,1.48-5.45-.13-7.82-.61-3.14-.64-6.29-1.41-9.3-2.8-3.32-1.53-6.4-3.22-8.77-6.22-.23.6-.52,1.02-.42,1.15,1.5,2.09,3.09,3.95,5.55,5.16,4.78,2.35,9.78,3.75,14.93,4.99,2.72.66,5.3,1.89,8.2,1.84,3.06-.06,5.9,1.32,9.07,1.07,8.49-.67,17.03.65,25.56-.93,3.86-.71,7.83-1.16,11.6-2.23,2.84-.81,5.88-1.58,8.06-3.91.76-.15,1.91.5,2-1,.76-.15,1.91.5,2-1,1.55.16,2.61-.42,3-2,.33-.33.67-.67,1.58-1.92-.19.16-.39.31-.58.47.15.15.3.3.45.45.15-.2.33-.38.44-.6.02-.04-.19-.2-.89.6-.33.33-.67.67-1,1-1.55-.16-2.61.42-3,2-.76.15-1.91-.5-2,1-.76.15-1.91-.5-2,1-.66,0-1.39-.18-1.98.03-2.48.9-5.18,1.34-7.52,2.28-2.16.87-4.26-.06-6.12.85-3.45,1.69-6.91.52-10.37.26,2.08-.42,4.33.06,6.25-.52,4.74-1.43,9.75-1.88,14.3-3.92,2.16-.97,4.83-.84,6.44-2.98.76-.15,1.91.5,2-1,1.55.16,2.61-.42,3-2,1.64.3,2.3-.36,2.58-2.92-.19.16-.39.31-.58.47.15.15.3.3.45.45.15-.2.33-.38.44-.6.02-.04-.19-.2-.89.6-.67.67-1.33,1.33-2,2-1.55-.16-2.61.42-3,2-.76.15-1.91-.5-2,1-1.09.15-2.12.23-3.24.58-4.45,1.39-9.01,2.49-13.59,3.35-2.49.46-5.05.02-7.61.94-1.57.57-3.69.46-6.47-.55,4.67-.51,8.32-.92,11.97-1.31.49-.05,1.25.17,1.44-.07,1.64-2.15,4.3-.18,6.33-1.8,1.69-1.34,4.33-1.47,6.55-2.14,3.36-1.02,6.83-3.03,8.62-5,1.55.16,2.61-.42,3.58-2.92-.19.16-.39.31-.58.47.15.15.3.3.45.45.15-.2.33-.38.44-.6.02-.04-.19-.2-.89.6-1.55-.16-2.61.42-3,2-.73.23-1.5.4-2.2.71-5.84,2.59-11.71,5.07-18.24,5.31-.58.02-1.14.45-1.72.63-2.1.64-9.24.42-12.47-.61,3.64-.14,6.48-.52,9.27-.87,6.26-.79,12.34-2.21,18.22-4.29,2.92-1.03,6.31-1.81,6.96-4.94,2.51.11,3.71.06,2.9-1.88-.8.52-1.51.97-1.72,1.93-.62.12-1.32.08-1.84.37-7.5,4.22-15.55,6.41-24.15,6.66-.74.02-1.47.44-2.21.66-2.07.61-8.32.37-10.93-.52,3.8-.47,7.44.47,10.77-1.16,6.71.04,13.01-2.01,19.22-4.12,2.92-.99,6.31-1.8,7.56-4.97,2.74.42,3.36-1.36,5.04-2.89-2.85-.07-3.41,1.8-4.46,2.98-.33,0-.71-.1-.99.02-2.69,1.15-5.43,2.17-8.17,3.18-2.75,1.01-5.86,1-8.32,2.78-5.04-.01-9.96,1.72-15.04,1.02-.79-.11-1.57-.24-2.35-.35,5.55-.33,10.8-1.71,16.14-2.49,5.68-.83,10.59-3.42,15.85-5.21.76-.26,1.27-1.28,1.89-1.94,1.55.16,2.61-.42,3-2,1.64.3,2.3-.36,2.58-2.92-.19.16-.39.31-.58.47.15.15.3.3.45.45.15-.2.33-.38.44-.6.02-.04-.19-.2-.89.6-.67.67-1.33,1.33-2,2-1.55-.16-2.61.42-3,2-1.06-.18-1.75.61-2.61.93-8.18,3.04-16.48,5.63-25.39,5.07.43-.33.83-.9,1.3-.96,3.02-.41,6.17-.29,9.04-1.15,3.41-1.02,6.92-1.76,10.22-3.05,3.29-1.29,6.35-3.17,9.48-4.85,1.59-.85,3.17-1.77,3.55-4.91-.19.16-.39.31-.58.47.15.15.3.3.45.45.15-.2.33-.38.44-.6.02-.04-.19-.2-.89.6-1.11.94-2.08,2.15-3.34,2.78-5.54,2.73-11.07,5.51-17.37,6.27-2.66.32-5.44.56-7.95,1.3-3.53,1.05-6.83.46-10.24.04,2.43-.39,5.01.06,7.27-.57,1.19-.33,2.37-.66,3.62-.84,1.38-.21,2.71-.78,4.08-.94,3.18-.37,12.89-3.22,16.39-5.01,2.04-1.05,4.29-1.85,5.53-4.01.33-.33.67-.67,1.58-1.92-.19.16-.39.31-.58.47.15.15.3.3.45.45.15-.2.33-.38.44-.6.02-.04-.19-.2-.89.6-.33.33-.67.67-1,1-.62.12-1.31.09-1.84.37-4.96,2.58-9.88,5.23-15.63,5.63-1.74,1.99-4.26.2-6.02,1.11-3.51,1.81-6.97.37-10.44.52,1.97-.9,4.18-.13,6.07-.71,4.35-1.32,8.93-1.52,13.25-2.92,3.75-1.22,7.54-2.33,10.6-5,.76-.15,1.91.5,2-1,.33-.33.67-.67,1.26-.99,1.64.08,2.62-.77,2.75-2.37-.91.78-1.89,1.63-3.01,2.36-.33.33-.67.67-1,1-.76.15-1.91-.5-2,1-1.09.15-2.09.1-3.24.61-5.45,2.39-11.14,4.03-17.14,4.41-.92.06-1.84.35-2.74.61-2.21.63-10.03.48-13.9-.63,2.13,0,3.1-.12,4.03.02,4.44.67,8.67-1.22,13.06-1.02,2-2.05,4.89-.36,7.24-1.87,1.99-1.28,5.02-.96,6.99-2.25,2.54-1.66,6.11-1.76,7.7-4.87,1.55.16,2.61-.42,3-2,.33-.33.67-.67,1.58-1.92-.19.16-.39.31-.58.47.15.15.3.3.45.45.15-.2.33-.38.44-.6.02-.04-.19-.2-.89.6-.33.33-.67.67-1,1-1.55-.16-2.61.42-3,2-2.32.82-4.68,1.54-6.95,2.48-4.66,1.93-9.42,3.32-14.5,3.55-.91.04-1.82.39-2.72.64-2.04.59-6.24.42-9.52-.67,2.33,0,3.79-.03,5.25,0,3.06.07,5.98-.95,9-1.3,1.98-.23,4.2-.9,6.22-1.68,2.01-.77,4.21-1.11,6.12-2.08,3.44-1.74,7.28-2.82,10.15-5.57.52-.5.62-1.45,1.02-2.47-8.52,6.81-18.26,8.83-28.1,10.65-4.33.8-8.6.38-12.91-.15,1.93-.41,3.88-.29,5.82-.43,3.19-.24,6.62-.02,9.49-1.15,2.93-1.16,6.05-1.23,8.94-2.48,2.8-1.21,5.79-1.97,8.63-3.25,2.77-1.25,5.51-2.26,7.65-6.01-.19.16-.39.31-.58.47.15.15.3.3.45.45.15-.2.33-.38.44-.6.02-.04-.19-.2-.89.6-.62.12-1.38.04-1.83.38-4.97,3.75-10.65,5.51-16.69,6.78-2.38.5-4.98.08-7,1.06-2.95,1.42-5.65.42-8.46.36,2.03-.81,4.28-.06,6.21-.66,4.74-1.46,9.76-1.89,14.32-3.94,2.16-.97,4.84-.82,6.45-2.98.76-.15,1.91.5,2-1,1.55.16,2.61-.42,3.26-1.99,1.64.08,2.62-.77,2.75-2.37-.91.78-1.89,1.63-3.01,2.36-1.55-.16-2.61.42-3,2-.76.15-1.91-.5-2,1-.83,0-1.77-.26-2.47.04-5.82,2.57-11.91,3.83-18.25,3.96-.64.01-1.38-.09-1.91.17-3.42,1.71-6.9.52-10.38.28,3.27-.7,6.61-.82,9.88-1.26,5.32-.71,10.51-1.75,15.63-3.24,3.01-.88,6.17-1.58,8.5-3.97.76-.15,1.91.5,2-1,1.55.16,2.61-.42,3-2,.33-.33.67-.67,1-1,.33-.33.67-.67,1.58-1.92-.19.16-.39.31-.58.47.15.15.3.3.45.45.15-.2.33-.38.44-.6.02-.04-.19-.2-.89.6-.33.33-.67.67-1,1-.33.33-.67.67-1,1-1.55-.16-2.61.42-3,2-.76.15-1.91-.5-2,1-.95.12-1.95.09-2.84.38-3.25,1.05-6.45,2.16-9.85,2.85-2.35.48-4.85.12-7,1.06-3.13,1.37-6.11.55-9.19.06,3.93.42,7.5-1.96,11.43-1.38,4.08-1.96,8.68-2.19,12.87-3.9,3.24-1.32,6.8-3.09,8.86-5.05,1.64.08,2.62-.77,2.75-2.37-.91.78-1.89,1.63-3.01,2.36-.62.12-1.28.13-1.84.37-1.98.84-3.9,1.79-5.88,2.62-1.41.59-2.95.92-4.31,1.6-1.57.77-3.36.21-4.96,1.31-1.17.8-3.28-.64-4.5,1.09-3.12-.16-6.29.37-9.39-.69,4.68.09,9.05-1.36,13.53-2.23,5.84-1.13,11.26-3.22,16.38-6.12,1.17-.66,1.99-1.95,3.55-3.87-.19.16-.39.31-.58.47.15.15.3.3.45.45.15-.2.33-.38.44-.6.02-.04-.19-.2-.89.6-.5,0-1.22-.21-1.46.03-2.35,2.51-5.45,3.59-8.6,4.5-5.4,1.57-10.7,3.63-16.48,3.5-.89-.02-1.79.43-2.69.69-1.97.56-6.34.33-8.9-.6,3.5-.36,6.68-.47,9.83-.91,5.01-.7,9.88-1.93,14.59-3.4,4.07-1.27,8.56-2.37,11.71-5.81.33-.33.67-.67,1-1s.67-.67,1.58-1.92c-.19.16-.39.31-.58.47.15.15.3.3.45.45.15-.2.33-.38.44-.6.02-.04-.19-.2-.89.6-.33.33-.67.67-1,1s-.67.67-1,1c-1.08.15-2.09.05-3.24.61-4.16,2.02-8.31,4.24-13.12,4.39-1.79,2.07-4.57.39-6.73,1.87-1.41.96-6.93,0-8.62-.53,3.22-.44,6.54-.78,9.82-1.37,2.91-.52,5.81-1.17,8.63-2.01,2.19-.66,4.38-1.52,6.37-2.64,2.36-1.32,5.47-1.51,6.89-4.32,1.55.16,2.61-.42,3.58-2.92-.19.16-.39.31-.58.47.15.15.3.3.45.45.15-.2.33-.38.44-.6.02-.04-.19-.2-.89.6-1.55-.16-2.61.42-3,2-.62.12-1.28.12-1.84.37-2.67,1.17-5.25,2.6-7.98,3.59-6.18,2.24-12.56,3.44-19.18,3.04.43-.33.82-.9,1.28-.96,2.99-.41,6.14-.27,8.96-1.18,2.2-.71,4.49-1.06,6.67-1.83,2.17-.76,4.48-1.4,6.51-2.25,1.91-.8,4.73-1.1,5.58-3.78.33-.33.67-.67,1-1,.33-.33.67-.67,1.58-1.92-.19.16-.39.31-.58.47.15.15.3.3.45.45.15-.2.33-.38.44-.6.02-.04-.19-.2-.89.6-.33.33-.67.67-1,1-.33.33-.67.67-1,1-.62.12-1.3.1-1.84.37-3.32,1.7-6.84,2.72-10.36,3.88-3.91,1.29-7.94,1.45-11.83,2.57-2.69.78-5.91.5-8.83-.47,2.12-.35,4.49.26,6.3-.48,3.5-1.43,7.23-1.85,10.8-2.69,5.96-1.41,11.32-3.97,16.68-6.66.49-.24.72-1,1.65-2.44-.19.16-.39.31-.58.47.15.15.3.3.45.45.15-.2.33-.38.44-.6.02-.04-.19-.2-.89.6-.73.23-1.52.36-2.19.72-8.12,4.27-16.57,7.3-25.89,7.29-.49,0-1.09-.14-1.45.08-3.07,1.85-6.27.53-9.43.49,5.3-.75,10.55-1.75,15.82-2.47,5.47-.74,10.4-3.15,15.72-4.27.58-.12.95-1.2,1.42-1.84.76-.15,1.91.5,2-1,.76-.15,1.91.5,2-1,.33-.33.67-.67,1-1,1.64.3,2.3-.36,2.58-2.92-.19.16-.39.31-.58.47.15.15.3.3.45.45.15-.2.33-.38.44-.6.02-.04-.19-.2-.89.6-.67.67-1.33,1.33-2,2-.33.33-.67.67-1,1-.76.15-1.91-.5-2,1-.76.15-1.91-.5-2,1-.83,0-1.9-.34-2.45.06-2.79,1.99-6.21,1.93-9.19,3.08-2.39.93-4.86.21-7,1.1-3.17,1.32-6.21.56-9.33.16,1.92-.4,3.93-.06,5.77-.47,5.28-1.17,10.62-2.32,15.68-4.16,1.8-.66,4.43-.43,5.51-2.78.76-.15,1.91.5,2-1,.76-.15,1.91.5,2.58-1.92-.19.16-.39.31-.58.47.15.15.3.3.45.45.15-.2.33-.38.44-.6.02-.04-.19-.2-.89.6-.76.15-1.91-.5-2,1-.76.15-1.91-.5-2,1-.83,0-1.8-.28-2.46.05-2.78,1.4-5.7,2.61-8.72,2.84-3.2.24-6.22,1.83-9.51,1.13-.61-.13-1.43-.17-1.91.14-2.76,1.76-5.59.52-8.4.36,1.07-.42,2.17-.53,3.26-.51,3.38.06,6.75-.69,9.97-1.24,4.79-.83,9.67-2.11,14.2-3.95,2.22-.9,5.5-.71,6.56-3.82.76-.15,1.91.5,2-1,.33-.33.67-.67,1-1s.67-.67,1.58-1.92c-.19.16-.39.31-.58.47.15.15.3.3.45.45.15-.2.33-.38.44-.6.02-.04-.19-.2-.89.6-.33.33-.67.67-1,1s-.67.67-1,1c-.76.15-1.91-.5-2,1-.5,0-1.13-.2-1.47.03-3.44,2.31-7.58,2.66-11.25,4.16-2.76,1.12-5.56.41-8.32,1.59-2.18.94-5.23.51-7.86-.43,4.54.11,8.71-1.56,13.03-2.39,1.71-.33,3.61-.43,4.87-1.96.98-.38,2.53.93,3-1,.98-.38,2.53.93,3-1,.98-.38,2.53.93,3-1,.76-.15,1.91.5,2-1,1.55.16,2.61-.42,3.26-1.99,1.64.08,2.62-.77,2.75-2.37-.91.78-1.89,1.63-3.01,2.36-1.55-.16-2.61.42-3,2-.76.15-1.91-.5-2,1-.98.38-2.53-.93-3,1-.98.38-2.53-.93-3,1-.98.38-2.53-.93-3,1-3.69.33-7.38.67-11.07,1-.16.01-.34,0-.48.06-4.07,2.01-8.27.51-12.42.52,3.69-1.15,7.53-.51,11.33-1.33,3.96-.86,8.07-1.53,12.09-2.33,3.06-.61,6.2-1.52,8.56-3.91.76-.15,1.91.5,2-1,.76-.15,1.91.5,2.58-1.92-.19.16-.39.31-.58.47.15.15.3.3.45.45.15-.2.33-.38.44-.6.02-.04-.19-.2-.89.6-.76.15-1.91-.5-2,1-.76.15-1.91-.5-2,1-4.99.5-9.48,3.31-14.62,3.12-1.46,1.71-3.59.19-5.06.96-1.85.97-3.69.91-5.6.91-7.46.02-14.92-.09-22.38.05-3.57.06-6.92-1.75-10.53-1.04-2.27-1.71-5.28-.59-7.62-2-2.4-1.44-5.58-.76-7.77-2.94-.42-.41-1.6-.06-2.43-.06-.09-1.5-1.24-.85-2.45-1,.15,0,.3,0,.45,0-.09-.26-.14-.55-.3-.76-.05-.06-.4.1-.61.17.15.2.31.4.91.59.09,1.5,1.24.85,2,1,0,.17-.06.45,0,.48,5.16,2.53,10.41,4.82,16.2,5.56.3.04.53.63.8.96-1.5,0-3.31.54-4.43-.11-2.39-1.39-5.14-1.11-7.57-2.28-2.5-1.2-5.23-1.89-7.52-3.58-.32-.24-.97-.03-1.47-.03-1-1-2-2-3.45-3h.45c-.09-.26-.14-.55-.3-.76-.05-.06-.4.1-.61.17.15.2.31.4.91.59.21,2.24.76,2.79,3,3,.23.4.37.93.71,1.18,3.22,2.35,13.24,6.21,17.5,6.86.3.05.53.63.79.96-5.05.06-9.68-1.45-14.16-3.63-1.21-.59-2.55-.92-3.26-1.46-1.63-1.09-2.18-2.96-5.04-2.89,1.68,1.53,2.3,3.31,4.46,2.98,1.79,1.97,5.34,3.87,8.59,5.03,5.33,1.9,10.84,3.1,16.3,4.57-2.07.5-3.95-.1-5.97-.44-6.52-1.08-12.76-2.67-18.45-6.13-.36-.22-.98-.03-1.48-.03-.33-.33-.67-.67-1-1-.33-.33-.67-.67-1.45-1h.45c-.09-.26-.14-.55-.3-.76-.05-.06-.4.1-.61.17.15.2.31.4.91.59.33.33.67.67,1,1,.33.33.67.67,1,1,.35.52.59,1.27,1.08,1.52,3.96,2.04,7.88,4.23,12.19,5.45,3.5.99,7.07,1.74,11.56,2.83-3.49.32-5.86,0-8.4-.7-4.63-1.27-9.34-2.11-13.56-4.63-1.13-.68-2.27-1.83-3.87-1.47-.33-.33-.67-.67-1.45-1h.45c-.09-.26-.14-.55-.3-.76-.05-.06-.4.1-.61.17.15.2.31.4.91.59.33.33.67.67,1,1,.23.4.37.94.71,1.17,3.16,2.16,12.7,5.97,16.47,6.88,1.97.47,4.17.45,5.82,1.95-4.22.3-8.03-1.37-11.98-2.45-3.44-.93-6.43-3.1-10.02-3.55-.33-.33-.67-.67-1-1-.33-.33-.67-.67-1-1-.33-.33-.67-.67-1.45-1ZM350.56,64.15c.15,0,.3,0,.45,0-.09-.26-.14-.55-.3-.76-.05-.06-.4.1-.61.17.15.2.31.4.91.59.33.33.67.67,1,1,.33.33.67.67,1,1,.39,1.58,1.45,2.16,3,2,.62.67,1.11,1.6,1.87,1.95,2.5,1.13,5.08,2.08,7.66,3.04,1.43.53,2.9.97,4.37,1.41,1.29.38,2.61.71,3.91,1.06-1.39.55-2.81.9-3.95.49-5.03-1.8-10.43-2.62-15.04-5.57-.49-.31-1.21-.25-2.07.01-.33-1.49-.77-2.83-3.08-2,1.26.82,2.17,1.41,3.33,1.62.24.4.37.98.72,1.18,5.95,3.29,11.95,6.4,18.7,7.93,2.11.48,4.35.67,6.94,1.39-4.17,1.56-7.58-.17-11.01-.64-3.13-.44-6.05-2.21-9.15-3.1-3.29-.95-5.63-3.66-9.01-4.55.64,1.12,1.37,2.24,2.4,2.74,3.04,1.48,5.67,3.7,9.17,4.42,3.14.65,6.16,1.94,9.18,3.11,3.22,1.24,6.69,1.35,9.97,2.4,2.11.67,4.63,0,6.95.16,2.37.17,4.73.95,7.07.9,4.53-.1,9.04-.58,13.56-.94,3.86-.31,7.71-.66,11.57-.99.16-.01.34.01.48-.05,4.09-1.93,8.68-2.19,12.86-3.89,3.22-1.31,6.8-3.09,8.02-5.15,2.74.42,3.36-1.36,5.04-2.89-2.85-.07-3.41,1.8-4.46,2.98-1.87-.07-3.1,1.38-4.67,1.96-8.17,3.03-16.45,5.58-25.33,5.04.12-.28.23-.81.35-.82,4.14-.15,8.11-1.18,12.12-2.13,3.98-.94,14.98-5,18.05-7.1.68-.46,1.29-1.09,1.75-1.77.46-.68,1.73-.88,1.38-2.45-4.06,2.02-7.37,4.83-11.47,6.47-4.24,1.69-8.65,2.91-12.95,3.55-4.25.63-8.69,2.62-13.88.49,3.15-.5,5.86.3,8.13-1.23,4.98.08,9.6-1.65,14.23-3.07,6.11-1.86,11.86-4.53,16.52-9.74-.87-.07-1.58-.31-1.75-.11-2.52,3.07-6.14,4.41-9.59,5.87-7.93,3.36-16.17,5.47-24.9,5.05.26-.33.55-.97.79-.95,4.54.31,8.8-1.13,13.14-2.05,5.97-1.26,11.71-3.14,16.52-7.03,1.46-1.18,3.9-1.36,4.22-4.12-4.22,2.17-8.26,4.33-12.38,6.34-4.38,2.13-9.16,3.16-13.9,3.69-4.73.53-9.49,2.34-14.9.49,3.73-.8,7.24.33,10.3-1.36,5.33.32,10.19-1.82,15.2-3.07,5.96-1.48,10.48-4.65,14.07-9.23-1.02.4-1.58.55-2.08.82-2.72,1.48-5.31,3.22-8.14,4.43-7.92,3.37-16.14,5.46-24.84,5.05.26-.33.52-.94.8-.96,3.05-.14,6.05-.16,9.11-.91,3.48-.86,6.97-1.52,10.36-2.8,1.74-.66,3.67-.88,5.06-2.22.43-.42.47-1.25.9-2.52-3.79,1.68-6.76,3.6-9.98,4.26-3.22.66-6.46,1.33-9.69,1.94-3.37.63-6.98.56-11.28-.23,3.75-1.23,7.06.46,9.8-1.55,5.79.05,11.04-2.02,16.35-3.96,1.93-.71,3.32-1.57,3.68-4.09-4.97,2.35-9.24,5.44-14.66,5.1-4.05,1.81-8.34,2.03-12.69,1.96-2.4-.04-4.85-.35-7.11.94-.37.21-1.06-.15-1.61-.25,1.71-.69,3.04-1.99,4.97-1.76,1.97.23,4,.18,5.99.01,1.71-.14,3.39-.89,5.09-.89,1.97,0,3.73-.63,5.59-1.03,3.97-.85,10.16-3.23,13.21-5.5.56-.42,1.23-1.63,1.02-1.96-.77-1.23-1.55-.37-2.33.29-.58.49-1.36.73-2.02,1.13-6.77,4.07-14.12,6.03-22.01,6-1.67,0-3.72-.62-4.92.13-2.27,1.43-4.35.47-6.49.72,3.81-2.18,7.95-1.87,12.05-1.84,3.53.02,6.83-1.06,10.24-1.78,3.63-.77,6.41-3.07,9.75-4.3,1.38-.51,2.78-1.62,2.86-3.71-3.71,1.1-6.49,3.61-9.92,4.83-4.32,1.54-8.58,3.09-13.27,2.98-4.16-.1-8.33-.02-12.5-.02h-5.34c.56-.83,1.13-.99,1.7-.99,4.17-.02,8.35-.26,12.49.06,4.61.36,8.82-1.23,13.16-2.12,1.47-.3,2.81-1.24,4.18-1.95,1.51-.79,3.03-1.58,4.43-2.55.56-.38.81-1.22,1.2-1.85-2.34.64-4.16,1.96-6.17,2.82-2.97,1.27-6.05,2.3-9.15,3.27-2.61.81-5.51-.53-7.98,1.27-.44.32-1.32-.06-1.96.06-3.8.69-7.35-1.15-11.09-1.01-3.24.13-6.26-.6-9.23-1.85-2.13-.9-4.4-1.45-6.03-2.25-1.63-1.09-2.18-2.96-5.04-2.89,1.68,1.53,2.3,3.31,4.46,2.98.75.67,1.54,1.3,2.25,2.01,1.37,1.34,3.64,1.25,4.75,2.99-4.21-.29-7.93-1.87-11.06-4.63-1.2-1.06-2.2-1.91-3.85-1,2.28,3.7,6.73,4.55,10.51,7.9-1.82-.39-2.81-.38-3.57-.79-2.89-1.56-6.19-2.48-8.37-5.23-.18-.22-1.09.15-1.65.24.11.45.08,1.11.36,1.32,2.05,1.45,4.12,2.87,6.27,4.16,1.42.86,2.98,1.49,4.48,2.23-1.26.6-2.31.53-3.22.14-1.98-.85-3.88-1.88-5.85-2.78-.6-.27-1.29-.32-2.6-.63,1.39,1.39,2.15,2.3,3.06,3.02.98.77,2.02,1.7,3.16,1.95,1.26.28,1.79.82,2,2.1-3.09-.25-5.17-3.7-9.27-2.71,2.02,1.45,3.42,2.75,5.07,3.57,1.36.67,3.04.69,4.51,1.18.49.16.78.92,1.6,1.97-2.04-.67-3.3-1.06-4.55-1.49-3.35-1.17-6.69-2.35-10.64-3.52-.96-.95-2.22-2.2-3.41-3.39.47,1.95,1.61,3.3,4.02,3.38.75.67,1.48,1.36,2.26,1.99,2.04,1.67,4.96,1.88,6.74,4.01-1.05-.22-2.12-.38-3.15-.67-2.62-.74-5.23-1.55-8.45-2.32-.96-.95-2.22-2.2-3.41-3.39.47,1.95,1.61,3.3,4.02,3.38.23.4.37.93.71,1.18,3.22,2.35,13.24,6.21,17.5,6.86.3.05.53.63.79.96-1.14,0-2.29-.03-3.43,0-1.59.06-2.77-1.48-4.5-1.07-.42.1-1-.83-1.54-.87-3.43-.25-6.09-2.87-9.52-3.07-.39-1.58-1.45-2.16-3-2-.33-.33-.67-.67-1-1-.33-.33-.67-.67-1.45-1ZM443.01,83.15c-.33.33-.67.67-1,1-.33,0-.74-.12-.99.02-4.73,2.71-9.89,4.28-15.13,5.54-1.7.41-3.95-.3-5.21.57-2.1,1.44-4.23.23-6.13.93-2.02.75-3.99.97-6.09.94-3.98-.05-7.97-.01-11.95-.01s-7.77.61-11.42-.17c-3.71-.8-7.52-.56-11.2-1.72-2.33-.74-4.83-1.05-7.2-1.88-4.21-1.48-8.46-2.82-13.14-4.22h.45c-.09-.26-.14-.55-.3-.76-.05-.06-.4.1-.61.17.15.2.31.4.91.59.78,1.42,1.79,2.35,3.41,3.09,4.96,2.28,10.13,3.63,15.36,5.11,6.22,1.76,12.55,1.62,18.78,2.66,7.62,1.27,15.3-.95,22.99-.87,2.18-1.45,4.84-.36,7-1.16,4.22-1.56,8.74-2,12.87-3.81,2.84-1.24,6.02-1.89,7.59-5.03.33-.33.67-.67,1.58-1.92-.19.16-.39.31-.58.47.15.15.3.3.45.45.15-.2.33-.38.44-.6.02-.04-.19-.2-.89.6ZM352.56,87.15c.15,0,.3,0,.45,0-.09-.26-.14-.55-.3-.76-.05-.06-.4.1-.61.17.15.2.31.4.91.59.33.33.67.67,1.92,1.58-.16-.19-.31-.39-.47-.58-.15.15-.3.3-.45.45.2.15.38.33.6.44.04.02.2-.19-.6-.89-.33-.33-.67-.67-1.45-1ZM443.01,97.15c-.33.33-.67.67-1,1.45v-.45c-.26.09-.55.14-.76.3-.06.05.1.4.17.61.2-.15.4-.31.59-.91.33-.33.67-.67,1.58-1.92-.19.16-.39.31-.58.47.15.15.3.3.45.45.15-.2.33-.38.44-.6.02-.04-.19-.2-.89.6ZM364.01,36.15c-.76.15-1.91-.5-2,1-2.42-.12-3.31,1.53-4.01,3.43-.26.71-1.08,1.85-.91,2,1.81,1.69.8,3.78.87,5.64.13,3.53,1.24,6.73,2.41,10.13.51-.54.95-.85,1.16-1.27.13-.26-.06-.69-.12-1.04-.55-3.11-1.82-6.11-1.42-9.38.16-1.31.03-2.65.03-4.09.89-.87,1.8-1.85,2.8-2.7,3-2.55,3.8-2.39,5.49,1.09.48.99.82,2.05,1.34,3.38.98-2.78-.1-4.71-1.46-6.48-1.11-1.45-2.79-.41-4.17-.71,0-.33,0-.67,2.37-1.34-.71-.38-1.06-.7-1.19-.63-.43.25-.79.63-1.17.97.65-.09,1.31-.19,0,0ZM427.58,33.99c.68.77.88,1.14,1.02,1.12.48-.07.94-.28,1.4-.43-.6-.17-1.21-.34,0,.47.09,1.5,1.24.85,2,1v1h-4.73c-.87,2.45-1.62,4.56-2.37,6.67,1.47-.53,2.21-1.2,2.2-2.74,0-1.03.98-2.07,1.51-3.09,1.29.61,2.28,1.03,3.24,1.52,2.5,1.3,3.16,1.85,3.79,3.81.54,1.68.35,3.25-.21,5.08-.91,2.97-.94,6.21-1.32,9.34-.01.1.22.23.55.57.81-1.39,2.21-2.7,2.22-4.03.05-4.66,2.16-9.19.83-13.92-1.28-1.28-2.52-2.63-3.9-3.83-.41-.35-1.2-.27-1.82-.38-.09-1.5-1.24-.85-4.42-2.15ZM353.01,79.15c-.33-.33-.67-.67-1-1-.67-.67-1.33-1.33-2.45-2h.45c-.09-.26-.14-.55-.3-.76-.05-.06-.4.1-.61.17.15.2.31.4.91.59-.3,1.64.36,2.3,2,2,.33.33.67.67,1,1,.09,1.5,1.24.85,2,1,.56,2.21,2.29,2.08,4,2,.62,1.51,2.14,1.58,3.37,1.98,4.47,1.45,8.85,3.31,13.7,3.02,2.64,1.93,5.94.03,8.46,1.22,3.12,1.47,6.15.72,9.15.68,6.01-.09,12.03.78,18.06-.76,3.18-.81,6.66-.32,10.05-.98,4.45-.87,8.91-1.72,13.14-3.26,2.18-.79,4.93-1.24,6.07-3.89,2.2.15,3.12-1.39,4.58-3.92-.19.16-.39.31-.58.47.15.15.3.3.45.45.15-.2.33-.38.44-.6.02-.04-.19-.2-.89.6-2.2-.15-3.12,1.39-4,3-.62.12-1.33.07-1.84.38-3.76,2.24-8.13,2.81-12.11,4.5-1.61.69-3.68.51-5.56.98-1.94.49-4.03.52-6.06,1.03-2.03.51-4.31-.02-6.45.15-2.04.16-4.06.94-6.07.9-4.52-.1-9.02.39-13.59-.78-3.51-.9-7.35-.57-11.04-.92-5.42-.51-10.4-2.55-15.7-3.23-.9-1.38-2.31-.95-3.58-1-1.01-1.31-2.29-2.08-4-2-.09-1.5-1.24-.85-2-1ZM376.85,20.02q-1.15-.93-2.81,0c1.13,0,2.05,0,2.91.48,6.93,1.14,13.75,2.78,20.92,2.73,7.15-.05,14.09-.99,21.01-2.75-1.63-.34-3.5-.86-4.82-.23-2.85,1.36-5.73.79-8.6.86-4.81.11-9.64-.25-14.43.11-4.78.36-9.3-1.48-14.18-1.2ZM389.01,31.3c0,4.1-.04,8.05.02,12,.03,2.06.84,2.78,2.99,2.84,1.62.05,3.24,0,4.76,0v-14.85h-7.76ZM421.39,44.94c-1.7,1.07-3.32,2.32-5.13,3.16-1.67.77-3.51,1.25-5.32,1.57-1.9.34-4-.05-5.76.59-1.88.69-3.69,1.01-5.61.88-4.52-.3-9.13-.23-13.52-1.15-2.75-.57-5.92-.78-8.12-3.3-.78-.9-2.34-1.12-3.54-1.65,1.03,1.8,2.42,2.95,3.94,3.89,2.8,1.72,5.99,2.59,9.15,3.14,4.01.71,19.93.19,24.49-1.04,3.64-.98,7.51-2.08,9.43-6.1ZM417.83,44.2c-4.2,1.34-8.33,3.33-12.58,3.74-4.58.43-9.47,1.32-14.03-.79-4.67.65-8.66-2.02-13.97-3.3,2.9,3.05,5.83,3.48,8.59,4.3,2.64.79,5.44.63,8.03,1.19,2.23.48,4.64,1.41,6.55.66,3.36-1.32,6.87-.55,10.26-1.68,2.71-.91,5.01-2.15,7.15-4.12ZM400.9,46.15c.16-5,.21-10-.03-14.82h-2.71c0,4.94,0,9.71.01,14.48,0,.12.21.24.3.34h2.42ZM409.77,29.22c.05-.36.11-.72.16-1.07h-9.34c-3.33,0-6.7-.31-9.99.09-2.88.35-5.52-2.58-8.9-.15,5,.73,9.53,1.39,14.06,2.06,4.76.7,9.25-1.68,14.01-.93ZM416.56,24.8c-4.54-1.81-8.23.42-12.05.37-4.17-.06-8.35.22-12.49-.08-3.59-.27-7.13-1.54-10.74-.38,11.48,2.21,22.97,1.88,35.28.1ZM402.01,46.82c1.07-.92,1.93-1.31,1.94-1.72.1-4.6.06-9.2.06-14.61-1.07.92-1.93,1.31-1.94,1.72-.1,4.6-.06,9.2-.06,14.61ZM386.88,30.17l-.7.2v15.3c.9-.77,1.75-1.17,1.77-1.58.1-3.8.13-7.61,0-11.41-.03-.85-.7-1.68-1.08-2.52ZM434.01,48.53c0-2.13.19-3.79-.08-5.37-.13-.75-1.07-1.51-1.83-1.95-.43-.25-1.59-.1-1.78.24-.6,1.06-1.11,2.26-1.25,3.45-.15,1.28.82,1.94,2.06,2.27.84.22,1.59.73,2.88,1.35ZM365.76,41.4c-2.53.02-4.47,1.08-4.71,2.83-.12.9.02,1.97.42,2.78.29.6,1.17.92,1.68,1.29,2.75-1.82,3.56-4.06,2.61-6.9ZM406.18,45.47c.8-.8,1.45-1.15,1.46-1.51.07-4.21.06-8.42,0-12.63,0-.06-.83-.1-1.46-.17v14.31ZM410.17,43.97c.28,0,.56.02.83.03,0-2.28.05-4.56-.01-6.84-.06-2.29.28-4.63-.82-6.84v13.65ZM383.17,43.97c.28,0,.56,0,.84.01,0-2.28.05-4.56-.01-6.84-.06-2.28.29-4.62-.82-6.82v13.65ZM414.84,30.32c-.66,3.57-1.18,7.13,0,10.65v-10.65ZM380.83,29.35c-.67,2.2-1.14,4.45,0,6.65v-6.65ZM380.83,38.3c-.3.03-.59.06-.89.09l.38,2.62c.17-.02.34-.04.51-.05v-2.66ZM440.01,55.87c-.6.19-1.36.43-3.04.97,1.67.2,2.32.46,2.51.26.35-.36.44-.99.53-1.23ZM413.97,27.35c-.54-.08-.99-.2-1.43-.17-.14,0-.25.41-.38.63.44.11.87.28,1.31.31.12,0,.26-.4.49-.76ZM422.01,19.9v-.5h-2v.5h2ZM441.15,88.5c.12.21.24.43.36.64.11-.11.33-.25.31-.33-.05-.24-.2-.45-.31-.67-.11.11-.22.22-.36.36ZM380.86,26.5c-.13-.13-.24-.24-.36-.36-.11.22-.26.44-.31.67-.02.08.2.22.31.33.12-.22.24-.43.36-.64ZM379.36,24c.21-.12.43-.24.64-.36-.11-.11-.25-.33-.33-.31-.24.05-.45.2-.67.31.11.11.22.22.36.36Z"/>
    <path d="M102.01,66.15c-1.17,0-2.34-.07-3.5.01-7.05.53-12.49-2.79-16.66-7.88-2.57-3.13-5.25-6.27-7.33-9.89-1.5-2.61-2.54-5.03-2.52-7.98.02-2.33.1-4.67-.02-7-.15-2.95.77-5.56,1.99-8.18,1.95-4.21,4.02-8.27,7.71-11.32,1.99-1.64,8.99-4.97,11.59-5.85,2.87-.97,5.72-.85,8.61-.93,1.26-.03,2.67.45,3.63-.94.11-.16.81-.18.93-.03,1.83,2.37,4.71-.04,6.87,1.63,1.91,1.48,4.37,2.26,6.58,3.35.42.2.99.3,1.22.64,3.43,5.15,9,8.72,10.99,14.93.23.73.81,1.4.88,2.12.25,2.76.48,5.53.49,8.29,0,2.46-.09,4.95-.52,7.36-.29,1.62-1.28,3.12-1.92,4.68-1.95,4.78-5.26,8.73-9.31,11.54-4.87,3.37-10.17,6.59-16.7,5.46-.97-.17-2-.02-2.99-.02ZM81.99,30.6c2.23,2.61,2.01,2.62,2.08,6.1.08,3.86.76,7.7.9,11.56.18,4.83,2.57,7.83,7.28,10,2.37,1.09,4.54,2.15,7.2,1.93.55-.04,1.23.29,1.7.65,2.34,1.78,4.58,1.36,6.84-.15.37-.25.83-.41,1.28-.52,3.65-.97,6.6-3.1,9-5.88.96-1.11,2.08-2.49,1.72-4.24-.48-2.34.53-4.48,1.26-6.47.96-2.61,1.15-4.87-.25-7.25-.32-.53-1.01-1.41-.88-1.55,2.01-2.25.11-5.08,1.19-7.47.61-1.34-.14-3.28-1.23-4.15-1.13-.9-2.17-1.93-3.36-2.75-1.93-1.34-2.63-3.72-4.79-5.01-2.08-1.23-3.59-3.41-5.42-5.24-1.59,0-3.27.18-4.89-.04-2.94-.4-5.12,1.33-7.47,2.49-1.39.68-2.49,1.99-3.7,2.95-1.04.83-2.05,2.35-2.92,3.67-.74,1.13-1.07,2.54-1.51,3.85-.2.59-.03,1.35-.33,1.85-1.12,1.87-2.37,3.67-3.7,5.69Z"/>
    <path d="M.75,82.18c1.39-.46,2.26-.96,3.14-.99,2.99-.1,6,.04,8.99-.07,1.56-.06,3.11.39,4.7-.78.73-.53,2.63.4,3.95.84,2.83.93,6,.48,8.66,2,6.05,3.44,10.69,7.82,9.83,15.63-.07.64,0,1.3,0,1.75-1.51,1.96-3.65,3.07-4.41,5.42-.18.55-1.24.86-1.95,1.17-1.24.54-2.51.99-4.38,1.71,1.45,1.04,2.59,1.55,3.27,2.42.63.81.76,1.99,1.12,3.01.1.29.37.58.34.85-.28,3.58.78,6.82,1.9,10.2,1.41,4.27,1.32,4.64,5.99,4.9-.78,1.66-1.48,3.25-2.27,4.8-.99,1.95-3.12,2.34-4.84,2.69-1.62.34-3.07-1.15-4.13-2.5-.66-.84-1.24-1.82-1.6-2.82-1.49-4.12-3.68-8.03-3.08-12.74.44-3.5-2.69-5.52-4.16-8.24-2.23.04-4.49-.07-6.69.22-.69.09-1.7,1.1-.79,2.33.35.48.51,1.12.68,1.71q1.02,3.51-.85,6.81c1.22,2.03,2.28,4.09,1.87,6.61-.36,2.2.28,3.71,2.71,4.34,1.16.3,2.14,1.28,3.22,1.96-1.62,1.67-3.55,1.79-5.61,1.76-5.1-.07-10.2-.02-16.15-.02,1.22-1.54,1.76-2.52,2.56-3.2,3.87-3.33,3.92-7.46,2.65-11.9-.13-.45-.52-1.11-.35-1.3,2.03-2.35.68-5.09.91-7.62.24-2.64.24-5.34.01-7.98-.36-4.18,1.14-8.5-.9-12.55,1.77-1.42.29-2.73.12-4.21-.19-1.64-.95-1.95-2-2.69-.96-.67-1.45-2.02-2.44-3.51ZM20.63,106.21c2.84-.1,5.37-.53,6.9-2.28,1.34-1.53,2.35-3.61,3.14-5.5.48-1.13-.98-3.08-1.54-4.67-.1-.29-.18-.65-.11-.94.59-2.69-1.72-3.67-3.05-5.2-1.56-1.78-3.77-2.21-5.93-2.43-2.07-.22-3.74,1.14-4.62,3.02-.88,1.88.27,4.2-1.36,5.92-.1.1.31.86.63,1.16,1.32,1.24,1.54,2.25.69,4.17-1.45,3.28-.3,5.26,2.84,6.36.89.31,1.88.31,2.42.39Z"/>
    <path d="M249.05,8.24c2.15-.21,4.33-.4,6.47-.96,2.94-.76,5.89,1.41,9.04,1,.4-.05,1.17,1.11,1.36,1.82.11.4-.5,1.14-.96,1.53-.93.8-2.73,1.39-2.82,2.22-.31,2.7-3.43,4.59-2.14,7.65v43.33c-2.85.84-5.78.65-6.57-1.96-1.47-4.85-6.56-6.99-7.93-11.73-2.32-.94-3.64-2.92-4.84-4.92-.66-1.1-3.32-1.3-1.75-3.5-1.01-1.06-2-2.13-3.02-3.18-1.16-1.19-2.63-2.2-3.45-3.59-.66-1.12-1.51-1.67-2.45-2.42-3.33-2.63-5.58-6.06-6.27-10.26h-2.87c.23,1.4.51,2.61.6,3.84.18,2.56.72,5.24.18,7.66-.28,1.22-.58,2.46-.6,3.7-.07,4.16.19,8.35-.08,12.49-.33,4.94,2.47,7.76,6.11,10.16.9.59,1.92.98,2.79,1.41v2.65c-.94-.07-2.06.16-2.44-.26-.98-1.09-2.23-.42-3.19-.85-1.66-.73-3.13,2.63-4.7.08-1.83,0-3.66.05-5.49-.05-.75-.04-1.57-.29-2.2-.69-.96-.61-1.29-1.48-.24-2.38.37-.31.71-.78,1.13-.87,1.73-.38,2.05-1.48,2.38-3.11.38-1.92,2.29-3.41,1.9-5.69-.21-1.24.34-2.52-.83-3.7-.51-.51-.54-2.14-.11-2.84,2.01-3.27.41-6.78.93-10.12-1.79-1.41-1.4-3.62-.88-5.04,1.71-4.69.29-9.43,1.03-14-2.14-1.56-3.24-4.01-5.81-4.72-.18-.05-.29-.54-.33-.83-.05-.49-.01-.99-.01-1.79,5.68-.94,11.14,2.06,16.52.6.33.64.49.79.46.91-1,4.91,1.7,8.32,4.76,11.52,1.67,1.75,3.38,3.4,4.29,5.73.33.86,1.08,1.57,1.71,2.29,3.27,3.78,7.86,6.45,9.55,11.55.05.14.21.29.35.35,2.86,1.12,4.36,3.57,5.98,5.93.22.31,1.05.55,1.35.39.63-.36,1.02-.69.35-1.77-1.31-2.14-1.43-4.88-.17-6.92.75-1.21-.45-2.31.71-3.48.69-.7-.43-2.66-.68-3.98-.57-3.06-.18-6.3-.18-9.46,0-1.33-.02-2.67,0-4,.05-2.96-1.07-5.09-3.93-6.33-1.3-.56-3.26-.84-3.03-3.4Z"/>
    <path d="M299.01,121.34q3.67-.1,5.01,2.91c.19.42.43.88.78,1.16,1.24.99,2.41,2.27,3.84,2.74,1.65.55.67,2.58,2.61,3.2,1.7.54,3.09,2.18,5.23,1.81.65-.11,1.67-.3,1.94.03,2.18,2.59,4.25-.03,6.14-.35,1.8-.31,3.34-2.32,4.89-3.71.39-.35.51-1.15.53-1.75.06-2.31.02-4.61.02-6.63-4.43-2.57-8.33-5.44-12.56-7.75-.42-.23-.5-1.09-.69-1.55-2.56-.45-5.41-.27-7.44-1.48-2.34-1.4-6.38-1.32-6.38-5.66,0-1.32-.56-2.79-1.28-3.92-.82-1.3-.48-2.16-.08-3.48.6-1.98.41-4.19.54-5.97,1.05-1.5,2.24-2.7,2.84-4.13,1.71-4.11,5.45-5.3,9.08-6.63,1.6-.58,3.36-.91,5.07-1,3.15-.16,6.48-.64,9.44.13,2.73.72,5.39.6,8.05.89.49,1.02,1.43,2.04,1.33,2.96-.42,4.02,2.32,7.85.62,12.11-2.23-.61-3.36-2.37-4.53-4.06-.8-1.16-6.5-5.66-7.64-6.07-3.06-1.1-6.07-1.78-9.19-.04-.63.35-1.87-.27-2.42.12-1.16.83-2.91,1-3.27,2.9-.26,1.34-1.2,2.55-1.42,3.88-.23,1.4-.28,2.81,1.18,4.01,1.97,1.62,3.97,3.09,6.28,4.19,2.78,1.34,5.49,2.81,8.24,4.21.55.28,1.17.78,1.68.69,1.74-.3,2.73.71,3.81,1.76.55.54,1.28.89,1.95,1.28,1,.59,1.86,1.2,1.84,2.58,0,.56.31,1.33.74,1.65,3,2.18,2.97,5.83,4.07,8.82,1.07,2.9-.66,5.98-2.06,8.51-2.37,4.26-6.13,6.91-11.22,7.52-1.68.2-3.26,1.23-5.09.94-1.64-.26-3.08.54-4.6.88-1.97.44-4.19.46-6.05-.88-1.99-1.43-4.54-.99-6.67-1.98-.97-.45-2.03-.76-3.08-1-1.84-.42-2.19-1.69-2.08-3.3.08-1.14-.3-2.65.29-3.33,1.25-1.44-.83-2.1-.37-3.36.38-1.03.08-2.3.08-3.83Z"/>
    <path d="M1.73,8.69c2.36-.95,4.31-2.74,6.78-.65.42.35,1.65.13,2.27-.23,2.02-1.16,4.21-1.09,6.01-.19,1.36.68,2.77.8,3.74.42,2.71-1.06,5.03.01,7.48.63.44.11.87.46,1.3.46,5.17-.03,7.8,3.63,10.75,7.05,1.77,2.06,2.15,4.2,1.96,6.71-.11,1.49-.11,3,0,4.49.13,1.6-.38,2.76-1.55,3.89-1,.97-2.62,1.61-2.51,3.42-2.18.36-3.17,3.05-5.98,2.6-2.08-.33-4.35.67-6.55.83-2.32.17-4.65,0-6.98.05-1.52.03-2.33.93-2.44,2.41-.06.83-.09,1.67.01,2.49.13.99.67,1.99.55,2.93-.11.85-1.07,1.57-1.27,2.43-.2.84-.27,2.21.22,2.62,2.48,2.09,1.45,4.26.41,6.25,1.45,2.83,5.48,3.69,4.99,7.95-2.62-.51-4.98.03-7.66-.83-2.49-.8-5.76-1.06-8.59.51-1.5.84-2.75.06-3.61-1.34,1.65-1.64,3.29-3.29,4.94-4.93,0-1.66-.14-3.34.03-4.99.23-2.23-.3-4.43.5-6.76.59-1.7-.4-3.9-.5-5.89-.12-2.32-.03-4.65-.03-6.98v-6.49c0-2.49,0-4.99,0-7.48,0-.99,1.66-1.35.64-2.95-1.11-1.75-1.35-2.81-3.89-5.78-.57-.66-.68-1.71-1.02-2.64ZM34.61,24.14c-2.46-2.06-4.32-3.92-3.63-6.94.06-.25-.15-.6-.3-.86-1.6-2.67-7.49-4.78-10.57-3.79-1.03.33-2.04.7-3.18,1.09.12.76-.02,1.79.43,2.27,1.13,1.19,1.01,2.93.52,3.68-1.68,2.56-1.52,5.05-.95,7.83.38,1.86.14,3.84.18,5.73h10.46c1.37-1.86,4.18-2.9,3.49-6.06-.05-.21.85-.6,1.27-.94.61-.5,1.19-1.05,2.27-2.01Z"/>
    <path d="M227.66,81.79c2.89-2.57,5.7-1.95,8.03-1.27,2.3.67,4.27.95,6.47.02.71-.3,1.55-.3,2.34-.39,6.75-.74,13.35,1.33,20.08,1.03,1.5-.07,3.26,1.91,3.41,3.5.08.83-.12,1.7.05,2.49.16.73.67,1.38,1.19,2.36-.98.77-1.99,1.56-3,2.34-.5-.5-1.57-1.08-1.84-1.93-1.02-3.15-4.17-3.54-6.31-5.22-.13-.1-.22-.26-.36-.35-1.95-1.23-3.67,1.06-5.38.49-1.59-.53-2.88-1.81-4.78-1.75-2.05.06-2.47,1.85-3.73,2.69,1.62,2.44,1.62,4.9.74,7.16-.65,1.66-.97,2.9.12,4.49.48.69.67,2.32.23,2.78-1.78,1.81.07,3.13.35,4.92,1.25,0,2.58.17,3.84-.04,2-.32,4.07-.71,4.89-3.04.57-1.62,1.73-2.32,3.82-1.7-.16,1.93,1.02,4.06-.64,6.23-.38.49.24,1.74.4,2.65.44,2.49,1.5,5.1-1.58,7.14-1.41-1.04-2.36-2.31-3.37-3.82-.77-1.14-3.34-.92-4.52-1.97-1.56-1.39-3-1.73-5.19-1.19.17.9.19,1.85.53,2.65.86,2.04.8,4.04.05,6.07-.21.58-.67,1.36-.46,1.76,1.61,3.1.75,6.4.93,9.61.14,2.62,1.24,4.22,3.85,4.59,3.73.53,7.19-.93,10.63-2.06.81-.26,1.27-1.72,1.78-2.68.65-1.22,1.09-2.56,1.81-3.74.73-1.2,1.89-1.94,3.35-1.44.57.19,1.45,1.11,1.37,1.28-.43.83-.94,1.52.2,2.16-2.25,2.8-.27,6.09-1.12,9.12-1.71.42-3.35,2.87-5.39.39-3.55.42-7.22-.84-10.7.71-.42.19-.98.39-1.37.26-6.62-2.11-13.41-.45-20.09-.98-.45-.04-.89-.23-1.88-.5,1.05-1.22,1.69-2.65,2.71-3.02,4.41-1.59,4.43-5.49,4.77-8.98.38-3.8.05-7.66.11-11.49.02-1.09-.41-2.27.64-3.26.26-.25.04-1.11-.09-1.66-.86-3.82-1.25-7.65.46-11.33.54-1.16,1.5-1.87.13-3.32-.67-.71-.09-2.55-.18-3.87-.13-1.84-1.04-3.35-2.43-4.47-1.48-1.21-3.12-2.22-4.9-3.46Z"/>
    <path d="M90.24,105.15c1.26,0,2.42.1,3.55-.02,2.23-.23,4.35-.64,5.24-3.22.56-1.63,1.93-2.06,3.96-1.58-.48,2.05,1.03,4.29-.93,6.38-.34.36-.08,1.7.33,2.26,1.27,1.69.4,3.53.52,5.27.04.59-.79,1.59-1.42,1.78-.54.16-1.77-.41-1.95-.92-.72-2.07-1.99-2.9-4.18-3.21-1.25-.17-2.31-1.57-3.5-2.34-1.06-.69-2.08-.72-3.07.27-.8.8-1.08,1.38-.28,2.48.5.68.18,1.9.51,2.77.79,2.13-2.09,3.79-.67,5.95,1.29,1.96.56,4.15.61,6.23.13,5.58,2.66,7.99,8.05,6.77,1.51-.34,3.31-.32,4.51-1.06,1.87-1.15,4.72-1.67,4.56-4.98-.04-.93.9-1.93,1.46-2.85.73-1.2,1.99-1.31,3.02-.82,1.02.49,2.05,1.63,1.39,2.83-1.72,3.1-.51,6.41-1.05,9.63-1.75.52-3.42,2.77-5.45.39-3.55.42-7.21-.85-10.69.72-.42.19-.99.38-1.37.25-5.94-2.09-12.07-.41-18.08-1.01-1.16-.11-2.26-.69-3.93-1.22,1.79-1.19,3.06-1.88,4.14-2.79,2.22-1.87,3.45-4.6,3.48-7.54.04-4-.04-8,.04-11.99.02-1.24-.57-2.64.7-3.72.25-.21.23-.89.14-1.31-1.21-5.84-1.34-7.58.21-11.68.47-1.25,1.38-1.93.02-3.3-.58-.59-.31-2.28-.06-3.39.56-2.45-.9-4.16-2.57-4.84-2.01-.82-2.88-2.61-4.55-3.62,2.31-2.66,5.29-1.83,7.8-1.16,2.29.61,4.26.94,6.46-.03.84-.37,1.89-.26,2.84-.37,6.42-.76,12.67,1.35,19.08,1.03,1.92-.1,3.51,1.53,3.88,3.54.15.77.27,1.55.41,2.33.19,1.08.79,2.3.48,3.21-.28.8-1.56,1.25-2.41,1.86-.24-.24-.45-.5-.71-.7-1.44-1.13-.77-3.63-3.04-4.33-1.6-.49-3.01-1.56-4.56-2.24-.84-.37-1.81-.71-2.7-.66-3.61.18-3.66.33-5.45-.56-2.89-1.43-4.55.09-6.02,2.24,1.11,2.42,1.59,4.82.46,7.38-.37.84-.75,2.14-.37,2.77,1.69,2.79.48,5.78,1.16,9.13Z"/>
    <path d="M143.62,82.73c1.11-.72,1.74-1.47,2.43-1.52,2.15-.16,4.33.05,6.49-.09,1.9-.13,3.76.24,5.75-.56,1.87-.75,4.17-.39,6.68-.54-.09,1.45.26,2.95-.32,3.86-1.92,3.03.66,5.45.88,8.15.13,1.53,1.6,2.96,2.48,4.42.16.26.44.7.58.67,3.01-.69,3.1,2.23,4.44,3.58.95.95,1.76,2.13,3.3,1.29,2.13-3.33,4.3-6.73,6.47-10.13.59-.92,1.15-1.86,1.77-2.76.91-1.33.53-2.35-.53-3.44-1.46-1.5-3.24-2.75-4.42-5.01,2.31-.87,4.44-.53,6.47-.44,1.87.08,3.72.64,5.58.94,2.02.33,4.31-.8,6.23,1.31-.84,1.26-.82,3.05-3.32,2.85-.78-.06-1.85,1.67-2.55,2.73-1.57,2.41-3.17,4.75-5.18,6.87-1.7,1.79-3.64,3.59-3.88,6.37-.04.41-.44,1.06-.77,1.13-2.65.58-1.81,3.8-3.78,4.92-.36.2-.39,1.17-.4,1.78-.05,2.16-.02,4.33-.02,6.49,0,1,.07,2-.01,3-.31,3.91.22,6.06.7,8.85.6,3.47,2.68,5.71,5.02,7.94.2.19.2.58.29.87-2.55,1.67-2.54,1.32-4.2,1.26-4.56-.16-9.13-.01-13.69.02-1.98,1.62-2.31-.4-3.53-1.57.89-.43,1.62-.61,2.11-1.05,2.12-1.88,3.92-3.74,3.48-7.13-.16-1.22-1.35-2.3-.61-3.83.53-1.08.36-2.53.41-3.81.06-1.5-.07-3,.03-4.49.17-2.47-.76-4.63-1.79-6.76-.36-.75-.08-1.97-1.69-1.87-.47.03-1.07-1.4-1.53-2.21-.38-.67-.48-1.84-.98-2.03-2.2-.8-2.65-2.82-3.41-4.56-.87-2.02-2.56-3.29-3.9-4.89-1.28-1.53-1.63-3.85-4.18-4.26-.67-.11-1.52-.98-1.73-1.68-.73-2.39-2.71-3.37-5.22-4.67Z"/>
    <path d="M321.8,12.15c.91,4.09-1.02,7.96,1.19,11.48-1.9,1.58-.72,3.71-.93,5.57-.12,1.05-.38,2.21.63,3.24.44.45.56,1.69.26,2.3-1.25,2.62-1,5.01-.04,7.72.9,2.53-.82,5.52.94,8.12.21.31-.29,1.1-.45,1.67-1.27,4.37.22,7.31,4.58,8.88,1.17.42,2.11,1.02,1.99,2.36-.09.98-2.12,2.09-3.17,1.62-4.43-2-9.06-.66-13.59-.85-1.57-.06-3.14,1.52-5.02.6-1.33-4.31,4.14-3.43,4.81-6.21,0-3.66-.04-7.32.01-10.98.04-3.24-1.72-6.26-1.02-9.57.39-1.85-.51-3.76.88-5.67.71-.98.65-3.2.02-4.34-1.41-2.53-.63-5.1-.88-7.63-.08-.82-.01-1.66-.01-2.49,0-2.1-1.32-3.45-2.56-4.94-1.73-2.07-3.19-.25-4.73.14-2.11.53-4.05,1.06-5.02,3.6-.57,1.49-2.42,2.48-4.25,4.22-.23-1.5-.35-2.21-.45-2.92-.4-2.85.86-5.86-.9-8.63-.21-.33.82-2.06,1.45-2.17,1.16-.2,2.48-.47,3.72.55,1.44,1.18,3.16,1.5,5.02.37,2.64-1.6,5.42.47,8.14-.03,3.06,2.61,6.31.71,9.07-.25,2.49-.87,4.84-.96,7.1-.55,4.7.85,4.65,1.06,8.78-.06,1.12-.31,2.16-.32,3.09.75.91,1.05.05,1.58-.19,2.47-.57,2.11-1.72,4.16-1.27,6.48.03.16-.02.34,0,.5.27,1.43-.73,2.14-1.74,2.62-.9.43-1.96-.85-2.27-2.54-.57-3.23-2.55-5.13-5.62-5.41-.5-.04-1,0-1.5,0h-6.09Z"/>
    <path d="M163.04,8.63c1.34-.54,2.32-1.21,3.34-1.27.99-.06,2,.73,3.02.75,4.12.09,8.25.04,12.74.04-.23,1.19-.24,2.15-.63,2.93-.36.7-1.1,1.23-1.72,1.78-3.17,2.83-3.21,6.4-2.41,10.17.23,1.07.95,2.48.53,3.17-1.42,2.32-.88,4.76-.85,7.13.03,2.2-.78,4.54.89,6.62.41.51-.09,1.65.09,2.44.52,2.24-2.56,4.44-.03,6.66,0,2.33.04,4.66-.01,6.98-.07,3.11.78,5.62,4.37,6.75-.58.78-.96,1.83-1.5,1.92-1.53.25-3.31.57-4.64.01-1.81-.77-3.38-.69-5.1-.18-4.15,1.24-4.18,1.23-7.32-2.68,1-1,2.08-1.98,3.05-3.07,1.27-1.44,2.21-3.01,2.17-5.09-.08-4.65-.12-9.31.03-13.96.05-1.42-1.03-2.47-.96-3.57.16-2.52-.93-5.12.78-7.65.7-1.02.63-3.19,0-4.35-1.1-2.05-.86-4.07-.87-6.13-.02-2.72-.53-4.95-3.54-5.99-1.28-.44-1.84-1.83-1.44-3.4Z"/>
    <path d="M65.68,161.49c1.19-2.29,2.29-4.33,3.32-6.41q2.02-4.04,7.54-3.5c-1.08.37-1.58.55-2.54.88,0,3.35.03,6.95-.02,10.56-.02,1.28.98.94,1.6,1.29.31.17.36.82.68,1.62-2.93.36-5.59.31-8.29.06-.12-2.57,3.5-1.93,3.08-4.52-.28-1.73-.05-3.54-.05-6.35-2.21,4.42-3.9,7.8-5.94,11.9-1.75-3.35-3.18-6.08-4.67-8.94q-.4,3.98,1.7,7.83h-6.9c-.88-2.89,1.95-1.13,2.81-2.36,0-2.49-.17-5.3.05-8.08.19-2.36-1.22-3.07-3.24-3.8.59-.23.96-.49,1.32-.5,5.1-.11,5.04-.08,6.9,5.05.62,1.71,1.63,3.29,2.64,5.27Z"/>
    <path d="M213.42,151.27h8.35c.03.16.06.33.08.49-.74.16-1.49.32-2.63.57-.46,1.66-.15,3.61-.2,5.53-.05,1.98-.01,3.95-.01,5.69,1.15.71,2.08,1.28,2.99,1.84-.51,1.02-3.66,1.07-9.41.22,1.74-1.82,4.62-2.95,3.14-6.26h-7.49q-.1,2.52,3.11,6.55c-3.16.45-6.05.12-8.91.25q-.21-1.82,2.2-2.15c.12-.28.35-.56.35-.85.03-2.33-.18-4.68.07-6.98.27-2.5-.73-3.89-2.97-4.84h9.02c-1.16.84-2.43,1.34-2.9,2.24-.46.88-.1,2.18-.1,3.42h7.58c.99-2.68.22-4.54-2.27-5.75Z"/>
    <path d="M53.49,165.86c-3.46.54-6.13.71-7.54-2.91-.42-1.08-1.59-1.88-2.46-2.85-1.47,2.55.33,3.97,2.29,5.82h-9c.47-.73.76-1.65,1.14-1.69,1.28-.14,1.1-.96,1.1-1.75,0-3.31,0-6.62,0-9.89-.71-.33-1.32-.61-1.93-.89.03-.18.06-.36.08-.55,2.78,0,5.57-.03,8.35,0,3.08.05,4.94,1.33,5.01,4.1.05,1.92-.82,3.86-3.23,4.08.11,3.79,4.38,3.69,6.2,6.52ZM43.23,158.19q3.71-.52,3.58-4.74c-1.09-.48-2.18-.96-3.58-1.58v6.32Z"/>
    <path d="M151,165.41c.93-.57,1.86-1.15,3-1.85,0-2.4-.16-5.06.05-7.68.19-2.41-.89-3.59-3.66-4.29,2.49-.68,4.44-.37,6.34-.42,1.99-.05,4.01-.18,5.98.03,3.25.33,5.12,2.83,5.34,6.2.18,2.8-.09,5.36-2.71,6.85-1.58.9-3.41,1.65-5.2,1.83-2.93.3-5.92.08-8.88.08-.09-.25-.17-.5-.26-.74ZM157.01,152.38c0,3.02.1,5.99-.04,8.95-.07,1.42.64,2.31,1.63,2.76,2.05.94,5.24-1.16,5.4-3.45.09-1.32-.04-2.66.03-3.99.11-1.81-.45-2.8-2.31-3.64-1.59-.73-2.92-.99-4.71-.63Z"/>
    <path d="M232.18,164.06h5.27c.68-1.09,1.26-2.01,2.03-3.24.25.73.52,1.13.51,1.52-.1,3.32-.5,3.77-3.52,3.8-3.44.04-6.88,0-11.14,0,1-1.16,1.48-1.72,2.68-3.12,0-2.5.08-6.09-.08-9.68-.03-.63-1.05-1.21-1.76-1.97,4.06-.53,8.25-.08,12.63-.26v4.28c-2.03-1.82-3.52-4.43-6.55-2.98v4.74c2.27.06,2.62-1.64,3.55-2.95v7.74c-.61-1.46-.7-2.32-1.13-2.54-.64-.33-1.52-.22-2.48-.32v4.97Z"/>
    <path d="M250.2,152.39v4.65c2.49.4,2.39-1.78,3.55-3.18v7.47c-.38-.51-.55-.76-.75-.99-.36-.4-.67-.92-1.12-1.14-.39-.19-.96-.04-1.66-.04v4.88h5.23c.69-.99,1.34-1.93,2.56-3.68,0,1.79.04,2.58,0,3.37-.09,1.5-.93,2.39-2.42,2.41-3.78.05-7.56.02-12.04.02.71-1,1.02-1.88,1.43-1.93,1.31-.16,1.03-1.04,1.04-1.8.02-2.82-.22-5.66.09-8.45.2-1.79-1.36-1.62-2.14-2.66h12.91c.05,1.05.12,2.28.18,3.64-.46-.09-.78-.06-.9-.2-1.57-1.71-3.13-3.42-5.93-2.36Z"/>
    <path d="M120.18,157.05h2.61c.15-1,.29-1.92.43-2.84,1.1,2.15.61,4.37.9,7.27-.69-.65-.92-.83-1.11-1.06-.35-.41-.6-.99-1.04-1.23-.39-.21-.97-.04-1.72-.04v5.09c2.62-.73,6.29,1.89,7.59-2.95v4.61h-14.04c.43-.71.71-1.65,1.08-1.68,1.27-.13,1.13-.92,1.13-1.73,0-3.31,0-6.63,0-9.91-.71-.34-1.32-.63-2.67-1.27h13.51c.05,1.04.12,2.27.19,3.71-1.15-.9-1.98-1.82-3.01-2.28-1.11-.49-2.42-.54-3.85-.83v5.12Z"/>
    <path d="M139.58,150.08c3.9,4.97,4.44,11.56,10.42,15.75-3.81.52-6.71.21-9.57.33-.16-1.94,1.65-1.78,2.47-2.29-.43-.91-.76-1.61-1.13-2.4-.15-.07-.43-.29-.72-.3-1-.04-2.01.07-2.99-.04-1.53-.16-2.62.49-3,1.87-.43,1.56,1.49.79,1.88,1.6.13.27.06.64.1,1.26-2.18.65-4.45.03-7.4.51.59-1.13.79-1.76,1.2-2.19.28-.29,2.44-1.62,2.59-1.94,1.64-3.65,4.07-6.94,4.98-10.93.09-.41.67-.71,1.18-1.23ZM138.55,155.84c-.58,1.35-.96,2.23-1.45,3.35,1.15-.08,2.03-.14,3.38-.24-.73-1.18-1.2-1.94-1.93-3.11Z"/>
    <path d="M16.17,165.98c4.46-3.44,4.41-8.92,6.83-13,.59-1,1.18-1.99,2.13-3.61,1.85,3.82,3.71,6.91,4.87,10.37.69,2.06,1.23,4.25,3.85,4.81.11.02.1.59.21,1.3-2.65.69-5.3.03-8.55.46.6-1.17.76-1.74,1.12-2.14.36-.39.9-.61,1.37-.91-.58-.7-1.07-1.88-1.77-2.02-1.58-.3-3.25-.1-4.79-.1-.48.98-.88,1.79-1.25,2.55.88.58,1.85,1.22,3.45,2.28h-7.47ZM25.91,158.99c-.51-1.06-.95-1.96-1.51-3.13-.57,1.04-1.05,1.92-1.72,3.13h3.23Z"/>
    <path d="M363.01,8.15c-.36-1.37.41-2.47,1.44-2.85,3.18-1.19,6.16-2.76,9.67-3.29,4.55-.68,9.12-1.41,13.69-1.77,4.8-.38,9.66-.18,14.49-.05,2.92.08,5.95-.74,8.76.54,2.54,1.16,5.56-.62,7.91,1.42,3.41-.25,6.43,1.4,9.67,1.96,1.33.23,2.01.86,2.37,2.04-.5,0-1.09.18-1.48-.03-5.24-2.81-11.08-3.35-16.78-3.85-5.92-.53-11.93-.25-17.9-.08-6,.16-11.98-.3-18.03.79-5.05.9-9.68,2.2-13.82,5.18Z"/>
    <path d="M197.86,151.15v5.74c-1.42.57-1.89.12-1.87-1.23.03-1.95-1.48-3.08-2.95-3.4-1.83-.41-4.05-.61-5.24,1.62-.36.67-.7,1.42-.76,2.16-.12,1.32.09,2.67-.06,3.98-.24,2.03,1.24,2.99,2.45,3.95,1.08.86,4.33.04,5.34-1.12.51-.58.79-1.34,1.25-1.97.44-.62.97-1.17,1.79-2.14v7.25c-1.01-.15-1.48-1.13-2.93-.44-2.43,1.16-5.22,1.09-7.83-.38-2.99-1.69-4.14-4.16-4.07-7.49.06-3.02,1.46-5,4.17-6.18,2.46-1.08,4.82-2.44,7.55-.42.64.47,1.92.07,3.16.07Z"/>
    <path d="M287.83,160.91c-1.41-.76-2.72-1.47-3.98-2.15-.47.63-.82.87-.82,1.12,0,1.44-.52,3.29,1.22,3.91,1.77.64,3.78,1.05,5.4-.74.45-.5,1.23-.7,2.18-1.22-.44,1.59-.75,2.71-1.13,4.1h-14.13c1.38-1,2.29-1.66,3.45-2.49,0-2.31-.17-4.96.05-7.58.2-2.41-.92-3.57-3.8-4.32,2.97-.64,5.24-.32,7.47-.38,2.31-.06,4.62-.01,7.1-.01v4.45c-2.11-2.66-4.21-4.31-7.57-3.23v4.5c2.62,1.21,3.38-.91,4.58-3.35v7.39Z"/>
    <path d="M320.84,151.51v5.28c-.81.57-1.74.85-1.81-.75-.08-2.13-1.36-3.4-3.12-3.81-1.9-.44-4-.41-5.22,1.73-.23.4-.67.81-.66,1.21.11,3.02-.79,6.2,1.74,9.17,1.57-.23,3.49-.39,5.34-.84,1.69-.41,1.12-3.43,3.68-3.36v4.55c-1.47.46-2.79.92-4.14,1.29-3.7,1.01-7.9-.55-9.65-3.65-1.85-3.28-1.29-7.32,1.33-10.12,1.36-1.45,3.2-1.23,4.73-1.91,1.41-.63,3.58-.69,4.86,1.24.95,1.44,1.71-1.42,2.91-.03Z"/>
    <path d="M264.68,154.45c1.95,1.01,3.59,1.83,5.2,2.71.68.37,1.37.8,1.93,1.33,1.18,1.11,1.89,3,1.55,3.8-.91,2.14-1.92,4.14-4.79,3.87-.82-.08-2.03.34-2.42-.08-1.36-1.45-2.49.37-3.92-.05v-6c.66.21,1.64.36,1.65.56.05,1.36.05,2.96,1.5,3.32,1.81.45,3.9.92,5.57-1.26-1.11-1.16-2.11-2.37-3.83-2.98-1.14-.4-2.19-1.24-3.11-2.07-2.37-2.15-2.4-2.41-1.51-4.44.9-2.04,2.92-3.27,5.14-2.98.58.07,1.1.69,1.67.72.8.04,1.62-.24,2.51-.39v5.82c-.78-1.13-1.28-2.06-1.97-2.8-2-2.15-2.41-2.07-5.16.93Z"/>
    <path d="M81.17,165.75v-6.26c2.05,3.31,3.82,6.05,7.67,4.33.62-1.66-.04-2.86-1.45-3.65-1.06-.6-2.26-.96-3.35-1.52-2.17-1.1-3.51-3.67-3.02-5.63.38-1.51,3.37-3.1,5.56-2.85.58.07,1.11.64,1.69.68.8.05,1.63-.19,2.58-.32v4.6c-.63-.08-1.43-.04-1.47-.2-.74-2.92-2.67-3.26-5.29-2.53.22,1.11-.97,2.45,1.41,2.87,1.72.3,3.24,1.74,4.83,2.69,2.54,1.5,2.63,6.24-.53,7.77-1.8.87-4.01.92-6.04-.24-.57-.32-1.57.13-2.59.26Z"/>
    <path d="M7.15,152.01v5.05c.68.03,1.46.07,2.51.12.21-1,.42-2.03.86-4.12.76,3.29.34,5.53.63,8.79-.77-1.05-.94-1.31-1.14-1.54-.36-.4-.68-.91-1.14-1.13-.4-.19-.96-.04-1.43-.04q-.4,3.25,1.76,6.8c-2.73.42-5.31.05-7.8.24-.19-.52-.46-.97-.36-1.08,1.95-2.27,1.97-2.26,1.97-4.6,0-2.65,0-5.3,0-7.92-.7-.34-1.32-.63-3.01-1.44,4.93,0,8.71-.05,12.49.02,1.71.03,2.54,1.03,2.48,2.84-.01.39-.34,1-.64,1.08-.37.1-1.2-.19-1.24-.41-.68-4.02-3.69-2.04-5.95-2.67Z"/>
    <path d="M105.01,152.17c0,2.61,0,4.92,0,7.23q0,3.36,2.24,6.41c-2.87.61-5.52.29-8.14.27-.07-.53-.16-.75-.09-.84q1.98-2.65,1.99-5.59c0-2.33,0-4.66,0-7.32-2.22-.22-4.52-1-5.17,2.42-.04.2-.93.47-1.26.33-.3-.13-.55-.78-.54-1.19.04-1.77.87-2.71,2.6-2.73,4.65-.06,9.31-.02,14.03-.02.23.63.3,1.32.67,1.77.57.69,1.24,1.47.29,2.03-1.23.72-1.33-.33-1.75-1.32-.78-1.87-2.7-1.48-4.86-1.45Z"/>
    <path d="M447.1,173.15v-3.05c4.15,1.73,8.34,1.01,12.47.99,3.73-.01,7.39,2.11,10.98.94,3.71-1.21,7.36-.6,10.99-.92.67,1.09.89,2.02-.7,2.02-11.22.03-22.45.02-33.74.02Z"/>
    <path d="M444.73,176.65c.39-.58.69-1.44,1-1.44,6.32-.08,12.69-.46,18.96.13,2.66.25,5.09,1.12,7.7-.14.67-.33,1.79-.34,2.44,0,1.91,1.01,3.94,1.09,6.06,1.61-.8.11-1.59.32-2.39.33-8.32.02-16.64-.01-24.97.04-1.47,0-2.95.58-4.41.52-1.37-.06-2.71-.62-4.39-1.04Z"/>
    <path d="M333.5,150.15c1.17,1.17,2.35,2.34,3.51,3.5v3.97c-1.18,1.19-2.34,2.37-3.58,3.62-1.81-.51-3.85.68-5.64-.77-.84-.68-2.12-.99-2.66-1.82-.59-.9-.86-2.26-.71-3.34.42-2.98,2.45-4.92,5.09-5.14,1.32-.11,2.65-.02,3.98-.02ZM334.01,158.89c0-1.95.15-3.62-.06-5.25-.11-.85-.71-1.84-1.39-2.35-.92-.68-3.29-.03-4,.81-2.06,2.46-2.06,4.71.05,7.14,1.2,1.37,2.44,1.4,3.76.1.29-.28.87-.25,1.64-.45Z"/>
    <path d="M355.95,180.7c-1.79.48-3.6,1.39-5.38,1.35-2.81-.08-5.75-.4-8.37-1.36-2.64-.96-5.53-1.1-7.64-.28-2.7,1.04-5.02.15-7.46.62,3.49-2.27,7.69-1.07,11.27-2.75,2.34,2.19,5.69-.44,8.18,1.74.58.51,2.45.3,3.2-.27,1.43-1.08,2.87-.35,4.26-.59.48-.08.49,0,1.94,1.54Z"/>
    <path d="M437.11,181.94c2.07-1.03,3.72-3.05,6.19-2.76,2.37.28,4.9-.94,7.14.83.42.33,1.45.38,1.89.1,3.06-1.98,6.32-.41,9.54-.32-2.64.45-5.26,1.09-7.92,1.31-2.8.23-5.65-.05-8.46.08-2.8.13-5.59.5-8.38.76Z"/>
    <path d="M350.96,176.44c-3.01.28-5.74.97-8.72-.08-2.15-.75-5.14-1-7.59.58-.48.31-1.42.42-1.88.15-2.11-1.23-4.13-1.73-6.21,0-.23-.49-.45-.98-.9-1.95,8.1,0,15.7-.03,23.31.06.67,0,1.33.81,1.99,1.24Z"/>
    <path d="M362.78,184.99h-18.54c-.03-.16-.05-.32-.08-.48.75-.12,1.53-.16,2.26-.39.72-.23,1.36-.8,2.08-.93.96-.17,1.98.06,2.95-.07,2.34-.31,4.89.91,7.03-.94.13-.11,4.46,1.55,4.49,1.75.05.29-.1.6-.2,1.06Z"/>
    <path d="M326.1,171.81c4.83-.83,17.4-.85,21.86-.2-1.14,2.38-1.1,2.21-3.37,1.68-3.14-.74-6.24-2.13-9.62-.25-.95.53-2.73.48-4.18-.46-1-.65-2.54-.46-4.68-.77Z"/>
    <path d="M451.52,183.7c-7.65,2.58-15.01.94-23,1.57,5.14-2.4,8.29-2.57,12.71-1.48,1.47.36,3.16.19,4.68-.1,2-.38,1.97-.54,5.61.01Z"/>
    <path d="M326.69,165.15c.42-.97.63-1.92.87-1.93,2.76-.11,5.53-.07,8.77-.07-.42.97-.63,1.92-.87,1.93-2.76.11-5.53.07-8.77.07Z"/>
    <path d="M456.36,168.4h12.66c0,.17,0,.33-.01.5h-13c.12-.17.24-.33.36-.5Z"/>
    <path d="M310.37,176.99c2.06-1.46,3.75-.4,5.26-1.68.91-.77,3.42-.78,4.24,1.68h-9.5Z"/>
    <path d="M451.97,168.99h-5.17c.3-.79.39-1.67.72-1.78,1.42-.44,2.86.2,4.44,1.78Z"/>
    <path d="M316.78,172.53c1.97-.5,3.7-.96,5.45-1.35.21-.05.52.31.78.47-.17.17-.32.46-.5.48-1.8.23-3.43,1.95-5.73.4Z"/>
    <path d="M472.53,180.28c1.96-.41,3.71.59,4.91-1.06.24.47.48.93,1,1.96-2.21-.26-3.97.56-5.91-.9Z"/>
    <path d="M472.81,180.03h-4.85q2.95-1.16,4.85,0Z"/>
    <path d="M327.01,172.15c-1.27,1.35-2.73,1.35-4,0h4Z"/>
    <path d="M431.01,6.15c1.64-.3,2.3.36,2,2-.67-.67-1.33-1.33-2-2Z"/>
    <path d="M311.83,172.98h-2.66c-.02-.17-.03-.35-.05-.52.88-.12,1.77-.25,2.65-.37.02.3.04.6.05.89Z"/>
    <path d="M472.01,168.4h3v.5h-3v-.5Z"/>
    <path d="M457.65,184c-.21-.12-.43-.24-.64-.36.11-.11.25-.33.33-.31.24.05.45.2.67.31-.11.11-.22.22-.36.36Z"/>
    <path d="M410.07,163.15c-2.7,1.15-5.34,1.01-8.02.19,1.35-.06,2.7-.15,4.05-.18,1.32-.03,2.65,0,3.97,0Z"/>
    <path d="M377.2,112.27h4.85q-2.95,1.16-4.85,0Z"/>
    <path d="M376.2,126.27h4.85q-2.95,1.16-4.85,0Z"/>
    <path d="M376.2,98.27h4.85q-2.95,1.16-4.85,0Z"/>
    <path d="M375.75,158.27h4.09c-.12.36-.22.78-.25.77-1.22-.18-2.75.82-3.84-.77Z"/>
    <path d="M375.75,169.27h4.09c-.12.36-.22.78-.25.77-1.22-.18-2.75.82-3.84-.77Z"/>
    <path d="M400.16,174.32h3.65l.04.62-3.62.24-.07-.86Z"/>
    <path d="M373.75,140.27h4.09c-.12.36-.22.78-.25.77-1.22-.18-2.75.82-3.84-.77Z"/>
    <path d="M411.01,120.89h-3.92c0-.15,0-.3,0-.45h3.92c0,.15,0,.3,0,.45Z"/>
    <path d="M373.75,101.27h4.09c-.12.36-.22.78-.25.77-1.22-.18-2.75.82-3.84-.77Z"/>
    <path d="M381.01,137.9h-4v-.5h4v.5Z"/>
    <path d="M407.81,131.97h-3.65c-.01-.2-.02-.41-.03-.61,1.23-.08,2.47-.17,3.7-.25,0,.29,0,.58-.01.86Z"/>
    <path d="M372.75,129.27h4.09c-.12.36-.22.78-.25.77-1.22-.18-2.75.82-3.84-.77Z"/>
    <path d="M405.85,103.98h-2.65c-.02-.17-.04-.34-.06-.51.87-.13,1.75-.25,2.62-.38.03.3.06.59.09.89Z"/>
    <path d="M380.01,109.4h3v.5h-3v-.5Z"/>
    <path d="M377.85,133.98h-2.66c-.02-.17-.04-.34-.05-.51.87-.13,1.75-.25,2.62-.38.03.3.06.59.09.89Z"/>
    <path d="M376.16,151.27h2.81q-1.66.93-2.81,0Z"/>
    <path d="M378.16,162.27h2.81q-1.66.93-2.81,0Z"/>
    <path d="M376.54,145.35c-.07-.16-.22-.51-.37-.86.27-.11.59-.37.82-.31.32.09.58.41.87.62-.27.11-.55.23-1.31.55Z"/>
    <path d="M400.54,148.94c.76.32,1.04.43,1.31.55-.29.22-.55.54-.87.62-.23.06-.54-.19-.82-.31.15-.35.3-.71.37-.86Z"/>
    <path d="M401.97,160.94c-.54.08-.99.2-1.43.17-.14,0-.25-.41-.38-.63.44-.11.87-.28,1.31-.31.12,0,.26.4.49.76Z"/>
    <path d="M378.43,177.3c-1.22-.35-1.82-.52-2.42-.69.47-.16.92-.36,1.4-.43.14-.02.34.36,1.02,1.12Z"/>
    <path d="M402.54,176.94c.76.32,1.04.43,1.31.55-.29.22-.55.54-.87.62-.23.06-.54-.19-.82-.31.15-.35.3-.71.37-.86Z"/>
    <path d="M378.01,180.4h2v.5h-2v-.5Z"/>
    <path d="M402.54,182.35c-.07-.16-.22-.51-.37-.86.27-.11.59-.37.82-.31.32.09.58.41.87.62-.27.11-.55.23-1.31.55Z"/>
    <path d="M381.86,141.5c-.12.21-.24.43-.36.64-.11-.11-.33-.25-.31-.33.05-.24.2-.45.31-.67.11.11.22.22.36.36Z"/>
    <path d="M381.15,148.79c.12-.21.24-.43.36-.64.11.11.33.25.31.33-.05.24-.2.45-.31.67-.11-.11-.22-.22-.36-.36Z"/>
    <path d="M379.65,156c-.21-.12-.43-.24-.64-.36.11-.11.25-.33.33-.31.24.05.45.2.67.31-.11.11-.22.22-.36.36Z"/>
    <path d="M380.65,117c-.21-.12-.43-.24-.64-.36.11-.11.25-.33.33-.31.24.05.45.2.67.31-.11.11-.22.22-.36.36Z"/>
    <path d="M382.86,116.5c-.12.21-.24.43-.36.64-.11-.11-.33-.25-.31-.33.05-.24.2-.45.31-.67.11.11.22.22.36.36Z"/>
    <path d="M381.86,166.79c-.13.13-.24.24-.36.36-.11-.22-.26-.44-.31-.67-.02-.08.2-.22.31-.33.12.22.24.43.36.64Z"/>
    <path d="M379.65,174c-.21-.12-.43-.24-.64-.36.11-.11.25-.33.33-.31.24.05.45.2.67.31-.11.11-.22.22-.36.36Z"/>
    <path d="M378.15,130.79c.12-.21.24-.43.36-.64.11.11.33.25.31.33-.05.24-.2.45-.31.67-.11-.11-.22-.22-.36-.36Z"/>
    <path d="M380.65,103c-.21-.12-.43-.24-.64-.36.11-.11.25-.33.33-.31.24.05.45.2.67.31-.11.11-.22.22-.36.36Z"/>
    <path d="M408.01,69.13c-3.97.04-7.95,0-11.99-.56.38-.14.76-.39,1.15-.4,3.62-.03,7.24-.02,10.86-.02,0,.33-.01.65-.02.98Z"/>
    <path d="M412.01,83.13c-3.64.03-7.28,0-10.94-.33,1.78-.93,3.68-.58,5.53-.64,1.82-.06,3.64-.01,5.46-.01-.01.33-.03.66-.04.98Z"/>
    <path d="M410.06,75.15c-3.02,1.18-6,.89-9.02.15,1.52-.05,3.03-.12,4.55-.14,1.49-.02,2.98,0,4.47,0Z"/>
    <path d="M400.82,65.98h-7.65c2.52-1.21,5.1-.66,7.65,0Z"/>
    <path d="M367.07,66.9c1.95.52,3.9,1.04,6.3,1.68-2.86,1.32-4.62-.05-6.3-1.68Z"/>
    <path d="M375.2,73.27h5.84c-3.15,1.23-3.85,1.2-5.84,0Z"/>
    <path d="M389.01,58.4h2v.5h-2v-.5Z"/>
    <path d="M383.43,55.3c-1.22-.35-1.82-.52-2.42-.69.47-.16.92-.36,1.4-.43.14-.02.34.36,1.02,1.12Z"/>
    <path d="M382.65,82c-.21-.12-.43-.24-.64-.36.11-.11.25-.33.33-.31.24.05.45.2.67.31-.11.11-.22.22-.36.36Z"/>
    <path d="M378.93,77.73c-.12.12-.28.33-.32.31-.22-.12-.4-.29-.6-.44.15-.15.3-.3.45-.45.16.19.32.39.47.58Z"/>
    <path d="M377.56,77.15c-.15-.2-.31-.39-.46-.59.21-.06.56-.23.61-.17.16.21.21.5.3.76-.15,0-.3,0-.45,0Z"/>
    <path d="M374.15,69.5c.13-.13.24-.24.36-.36.11.22.26.44.31.67.02.08-.2.22-.31.33-.12-.22-.24-.43-.36-.64Z"/>
    <path d="M389.86,64.79c-.13.13-.24.24-.36.36-.11-.22-.26-.44-.31-.67-.02-.08.2-.22.31-.33.12.22.24.43.36.64Z"/>
    <path d="M389.65,62c-.21-.12-.43-.24-.64-.36.11-.11.25-.33.33-.31.24.05.45.2.67.31-.11.11-.22.22-.36.36Z"/>
    <path d="M375.65,59.29c.13.13.24.24.36.36-.22.11-.44.26-.67.31-.08.02-.22-.2-.33-.31.22-.12.43-.24.64-.36Z"/>
    <path d="M387.51,55.15c.11.22.26.44.31.67.02.08-.2.22-.31.33-.11-.22-.26-.44-.31-.67-.02-.08.2-.22.31-.33Z"/>
    <path d="M430.4,9.01c-2.71,3.65-6.18,4.87-9.81,5.04-3.72.18-7.25,1.5-11.06,1.17-3.63-.32-7.31-.07-10.96-.07s-7.66-.22-11.46.08c-2.68.21-5.07-1.22-7.56-.98-2.7.26-5.06-.84-7.55-1.25-2.16-.35-4.11-2.03-6.02-3.06.32-3.81,3.57-3.94,5.67-4.63,2.97-.98,6.32-1.07,9.51-1.1,4.22-.05,8.26-1.51,12.56-1.14,4.29.37,8.64-.04,12.95.13,2.36.09,4.69-.48,7.15.8,1.97,1.03,4.83-.6,6.99,1.15,2.89-.62,5.18,1.05,7.63,2.04.68.28,1.17,1.05,1.97,1.82ZM389.01,12.15c.76-.15,1.91.5,2-1,.98-.38,2.53.93,3-1,3,0,6,0,8.69.31,2.4,1.23,4.7,2.41,7.19,3.68,0-.72.13-1.5-.02-1.56-2.25-.9-3.91-3.54-6.86-2.43-.12-.28-.23-.81-.35-.81-2.77-.05-5.54-.05-8.3,0-.12,0-.23.53-.35.81-.98.38-2.53-.93-3,1-.76.15-1.91-.5-4.37,1.34.71.38,1.06.7,1.19.63.43-.25.79-.63,1.17-.97-.65.09-1.31.19,0,0Z"/>
    <path d="M432.93,37.73c-.12.12-.28.33-.32.31-.22-.12-.4-.29-.6-.44.15-.15.3-.3.45-.45.16.19.32.39.47.58Z"/>
    <path d="M362.01,37.15c.67,0,1.33,0,2,0-.41.33-.83.67-1.24,1-.25-.33-.5-.67-.76-1Z"/>
  </g>
</svg>