<?xml version="1.0" encoding="UTF-8"?>
<svg id="Layer_2" xmlns="http://www.w3.org/2000/svg" viewBox="0 0 129.96 121.98">
  <g id="Layer_1-2" data-name="Layer_1">
    <path d="M129.96.48c-1.82,32.26-3.63,64.53-5.46,97.02h-6.51c-.61-9.99-1.27-20.08-1.85-30.16-1.16-20.31-2.26-40.62-3.42-60.93-.11-1.98-.5-3.95-.76-5.93h18Z"/>
    <path d="M93.96.48c2.76,1.02,5.88,1.32,9.09,2.51-1.42,2.63-3.01,5.62-4.02,7.48-3.33-.47-6.17-1.51-9.04-1.48-1.03.01-2.69,1.23-2.85,2.8-.07.73-.53,2.07,2.09,3.19,2.43,1.04,5.03,1.69,7.54,2.58,4.42,1.57,7.56,4.31,7.65,9.37.1,5.17-1.44,9.64-6.43,12.03-8.08,3.86-15.8,2.5-23.84-2.11,1.44-2.57,3.08-5.48,4.28-7.61,3.63,1.07,6.56,3.02,9.88,3.29,1.53.13,6,.9,6-3.6-.19-3.06-2.31-3-4.12-3.56-1.51-.47-3.7-1.1-5.3-1.55-4.73-1.35-8.76-3.3-9.05-9.14-.29-6.02,1.71-10.74,7.22-13.39.86-.41,2.63-.81,4.25-1.29,2.67,0,3.82.32,6.65.48Z"/>
    <path d="M.95,98.56c3.37-6.6,7.77-11.95,15.72-12.97,4.7-.61,9.7.25,11.13,1.04,0,0-.19,4.12-.64,8.97-3.3-.66-6.55-1.66-10.43-.92-1.63.31-3.52,1.83-4.69,3.3-2.86,3.6-2.72,8.39.26,11.7,3.34,3.7,8.1,4.63,14.32,1.33,1.01,5.21,1.62,9.29,1.62,9.29-1.79,1-5.54,1.75-10.58,1.6-8.11-.24-13.61-5.79-16.71-12.34q-1.27-5.96,0-11.01Z"/>
    <path d="M95.13,85.25h8.74c0,11.39.13,25.21.13,36.73h-8.91c-4.13-5.08-12.23-15.58-16.38-20.65,0,6.38-.28,13.88-.28,20.65h-8.38v-36.61c4.83-.13,8.38-.13,8.38-.13,3.95,5.08,12.07,16.17,16.68,22.25,0-7.57.02-15.3.02-22.25Z"/>
    <path d="M52.98,24.85v6.72h16.34v8.33c-.97.11-1.92.31-2.88.31-7.62.03-15.24.01-23.19.01V1.93h26.21v7.97h-16.27v6.63h15.55v8.31h-15.75Z"/>
    <path d="M50.79,81.78c-11.32-.04-19.21-7.94-19.14-19.16.07-10.17,8.52-18.04,19.33-18,10.81.04,19.13,7.97,19.12,18.19-.02,11.23-7.94,19.02-19.3,18.98ZM51.11,53.36c-5.48-.11-10.14,4.22-10.18,9.46-.04,5.64,4.52,10.36,9.98,10.34,5.26-.02,9.7-4.44,9.94-9.9.23-5.21-4.29-9.79-9.75-9.9Z"/>
    <path d="M74.09,45.95h8.78c0,5.23-.02,10.48,0,15.73.01,2.17-.07,4.36.24,6.49.52,3.58,2.49,5.75,6.41,5.53,3.69-.21,5.43-2.48,5.56-5.85.23-6.16.15-12.33.23-18.5.01-.97.14-1.95.24-3.25h8.06c0,8.89.69,17.86-.23,26.67-.66,6.33-7.78,9.45-16.46,8.74-7.61-.63-12.38-4.59-12.75-11.55-.41-7.8-.09-15.63-.09-24Z"/>
    <path d="M66.45,121.95c-2.98.07-9.96,0-9.96,0,0,0-1.77-5.9-2.56-8.52,0,0-3.49,0-5.7,0-1.7,0-5.36,0-5.36,0-.56,1.62-2.06,6-2.69,8.52h-10.18c2.21-5.96,3.64-9.9,5.26-14.17,2.36-6.22,5.72-16.43,8.36-22.53h9c4.58,10.62,9.57,25.4,13.83,36.7ZM48.39,95.83c-1.53,4.65-2.57,7.81-3.68,11.18h7.44c-1.2-3.57-2.24-6.65-3.76-11.18Z"/>
    <path d="M20.41,11.99c3.07-3.78,7.87-9.9,7.87-9.9,0,0,6.42-.17,10.81-.29-2.7,3.91-7.99,10.74-7.86,10.56s-6.33,8.48-6.33,8.48c-.05,2.68.05,3.71.17,12.27.03,2.12.04,4.28.04,6.77h-9.09c-.17-6.75-.4-13.12-.54-19.04C10.52,14.38,5.49,8.29,1.47,2.62c3.4,0,7.05-.1,10.45-.09,2.67,3.16,5.82,6.31,8.49,9.47Z"/>
    <path d="M129.15,113.26c.06,4.61-3.54,8.25-8.1,8.19-4.32-.06-7.9-3.61-7.94-7.9-.04-4.56,3.6-8.19,8.18-8.15,4.47.04,7.8,3.38,7.86,7.85Z"/>
    <path d="M20.41,53.72c3.07-3.78,7.87-9.9,7.87-9.9,0,0,6.42-.17,10.81-.29-2.7,3.91-7.99,10.74-7.86,10.56s-6.33,8.48-6.33,8.48c-.05,2.68.05,3.71.17,12.27.03,2.12.04,4.28.04,6.77h-9.09c-.17-6.75-.4-13.12-.54-19.04-4.97-6.46-10-12.56-14.02-18.23,3.4,0,7.05-.1,10.45-.09,2.67,3.16,5.82,6.31,8.49,9.47Z"/>
  </g>
</svg>